<?xml version="1.0" encoding="UTF-8" standalone="no"?>
<!-- Created with Inkscape (http://www.inkscape.org/) -->

<svg
   width="75mm"
   height="80mm"
   viewBox="0 0 75 80"
   version="1.1"
   id="svg1"
   sodipodi:docname="fanus-kaj.svg"
   inkscape:version="1.4.1 (93de688d07, 2025-03-30)"
   xmlns:inkscape="http://www.inkscape.org/namespaces/inkscape"
   xmlns:sodipodi="http://sodipodi.sourceforge.net/DTD/sodipodi-0.dtd"
   xmlns="http://www.w3.org/2000/svg"
   xmlns:svg="http://www.w3.org/2000/svg">
  <sodipodi:namedview
     id="namedview1"
     pagecolor="#ffffff"
     bordercolor="#000000"
     borderopacity="0.25"
     inkscape:showpageshadow="2"
     inkscape:pageopacity="0.0"
     inkscape:pagecheckerboard="0"
     inkscape:deskcolor="#d1d1d1"
     inkscape:document-units="mm"
     showgrid="true"
     inkscape:zoom="1.0601151"
     inkscape:cx="-142.43737"
     inkscape:cy="238.18169"
     inkscape:window-width="1536"
     inkscape:window-height="804"
     inkscape:window-x="0"
     inkscape:window-y="0"
     inkscape:window-maximized="1"
     inkscape:current-layer="layer1">
    <inkscape:grid
       id="grid1"
       units="mm"
       originx="-75"
       originy="-110"
       spacingx="0.99999998"
       spacingy="1"
       empcolor="#0099e5"
       empopacity="0.30196078"
       color="#0099e5"
       opacity="0.14901961"
       empspacing="5"
       enabled="true"
       visible="true" />
  </sodipodi:namedview>
  <defs
     id="defs1">
    <inkscape:path-effect
       effect="fillet_chamfer"
       id="path-effect11"
       is_visible="true"
       lpeversion="1"
       nodesatellites_param="F,0,0,1,0,0,0,1 @ F,0,0,1,0,4.2556331,0,1 @ F,0,0,1,0,1.2594813,0,1 @ F,0,0,1,0,4.4457952,0,1 @ F,0,0,1,0,0,0,1 @ F,0,0,1,0,0.60270429,0,1 @ F,0,0,1,0,0,0,1 @ F,0,0,1,0,0,0,1 @ F,0,0,1,0,2.2219109,0,1 @ F,0,0,1,0,1.0001168,0,1 @ F,0,0,1,0,0.99984435,0,1 @ F,0,0,1,0,0,0,1"
       radius="0"
       unit="px"
       method="auto"
       mode="F"
       chamfer_steps="1"
       flexible="false"
       use_knot_distance="true"
       apply_no_radius="true"
       apply_with_radius="true"
       only_selected="false"
       hide_knots="false" />
    <inkscape:path-effect
       effect="fillet_chamfer"
       id="path-effect7"
       is_visible="true"
       lpeversion="1"
       nodesatellites_param="F,0,0,1,0,2.1620346,0,1 @ F,0,0,1,0,2.1620346,0,1 @ F,0,0,1,0,2.1769766,0,1 @ F,0,0,1,0,0,0,1 @ F,0,0,1,0,0,0,1 @ F,0,0,1,0,0,0,1 @ F,0,0,1,0,1.6549321,0,1 @ F,0,0,1,0,0.38439473,0,1 @ F,0,0,1,0,0,0,1 @ F,0,0,1,0,0,0,1 @ F,0,0,1,0,0,0,1 @ F,0,0,1,0,0,0,1 @ F,0,0,1,0,0,0,1 @ F,0,0,1,0,0,0,1 @ F,0,0,1,0,0,0,1 @ F,0,0,1,0,0,0,1"
       radius="0"
       unit="px"
       method="auto"
       mode="F"
       chamfer_steps="1"
       flexible="false"
       use_knot_distance="true"
       apply_no_radius="true"
       apply_with_radius="true"
       only_selected="false"
       hide_knots="false" />
    <inkscape:path-effect
       effect="fillet_chamfer"
       id="path-effect10"
       is_visible="true"
       lpeversion="1"
       nodesatellites_param="F,0,0,1,0,0,0,1 @ F,0,0,1,0,0,0,1 @ F,0,0,1,0,0,0,1 @ F,0,0,1,0,7.99978,0,1 @ F,0,0,1,0,7.9997726,0,1 @ F,0,0,1,0,0,0,1 @ F,0,0,1,0,2.0877368,0,1 @ F,0,0,1,0,0,0,1 @ F,0,0,1,0,1.9998433,0,1 @ F,0,0,1,0,0,0,1 @ F,0,0,1,0,0,0,1 @ F,0,0,1,0,0,0,1 @ F,0,0,1,0,0,0,1 @ F,0,0,1,0,0,0,1 @ F,0,0,1,0,0,0,1 @ F,0,0,1,0,0,0,1 @ F,0,0,1,0,0,0,1 @ F,0,0,1,0,0,0,1 @ F,0,0,1,0,0,0,1 @ F,0,0,1,0,0,0,1 @ F,0,0,1,0,0,0,1 @ F,0,0,1,0,0,0,1 @ F,0,0,1,0,0,0,1 @ F,0,0,1,0,0,0,1 @ F,0,0,1,0,0,0,1 @ F,0,0,1,0,0,0,1 @ F,0,0,1,0,2.8068942,0,1 @ F,0,0,1,0,0,0,1 @ F,0,0,1,0,0,0,1"
       radius="0"
       unit="px"
       method="auto"
       mode="F"
       chamfer_steps="1"
       flexible="false"
       use_knot_distance="true"
       apply_no_radius="true"
       apply_with_radius="true"
       only_selected="false"
       hide_knots="false" />
    <inkscape:path-effect
       effect="fillet_chamfer"
       id="path-effect9"
       is_visible="true"
       lpeversion="1"
       nodesatellites_param="F,0,0,1,0,0,0,1 @ F,0,0,1,0,0,0,1 @ F,0,0,1,0,0,0,1 @ F,0,0,1,0,0,0,1 @ F,0,0,1,0,0,0,1 @ F,0,0,1,0,3.999743,0,1 @ F,0,0,1,0,0,0,1 @ F,0,0,1,0,0,0,1 @ F,0,0,1,0,1.0001235,0,1 @ F,0,0,1,0,1.0001235,0,1 @ F,0,0,1,0,0,0,1 @ F,0,0,1,0,0,0,1 @ F,0,0,1,0,1.0160251,0,1 @ F,0,0,1,0,1.0001235,0,1 @ F,0,0,1,0,0,0,1 @ F,0,0,1,0,0,0,1 @ F,0,0,1,0,0,0,1 @ F,0,0,1,0,0,0,1 @ F,0,0,1,0,0,0,1"
       radius="0"
       unit="px"
       method="auto"
       mode="F"
       chamfer_steps="1"
       flexible="false"
       use_knot_distance="true"
       apply_no_radius="true"
       apply_with_radius="true"
       only_selected="false"
       hide_knots="false" />
    <inkscape:path-effect
       effect="fillet_chamfer"
       id="path-effect8"
       is_visible="true"
       lpeversion="1"
       nodesatellites_param="F,0,0,1,0,0,0,1 @ F,0,0,1,0,1.0001235,0,1 @ F,0,0,1,0,0,0,1 @ F,0,0,1,0,4.0000274,0,1 @ F,0,0,1,0,3.9998126,0,1 @ F,0,0,1,0,2.9998125,0,1 @ F,0,0,1,0,0,0,1 @ F,0,0,1,0,0.36614822,0,1 @ F,0,0,1,0,0,0,1 @ F,0,0,1,0,0,0,1 @ F,0,0,1,0,5.0000274,0,1 @ F,0,0,1,0,0,0,1 @ F,0,0,1,0,2.9999371,0,1 @ F,0,0,1,0,0,0,1"
       radius="0"
       unit="px"
       method="auto"
       mode="F"
       chamfer_steps="1"
       flexible="false"
       use_knot_distance="true"
       apply_no_radius="true"
       apply_with_radius="true"
       only_selected="false"
       hide_knots="false" />
    <inkscape:path-effect
       effect="fillet_chamfer"
       id="path-effect4"
       is_visible="true"
       lpeversion="1"
       nodesatellites_param="F,0,0,1,0,0,0,1 @ F,0,0,1,0,0,0,1 @ F,0,0,1,0,1.6313886,0,1 @ F,0,0,1,0,1.6313886,0,1 @ F,0,0,1,0,0,0,1 @ F,0,0,1,0,4.9382405,0,1 @ F,0,0,1,0,0,0,1 @ F,0,0,1,0,0,0,1 @ F,0,0,1,0,0,0,1 @ F,0,0,1,0,0,0,1 @ F,0,0,1,0,0,0,1 @ F,0,0,1,0,0,0,1 @ F,0,0,1,0,0,0,1 @ F,0,0,1,0,0.43681195,0,1 @ F,0,0,1,0,0.43681195,0,1 @ F,0,0,1,0,1.0001235,0,1 @ F,0,0,1,0,0,0,1"
       radius="0"
       unit="px"
       method="auto"
       mode="F"
       chamfer_steps="1"
       flexible="false"
       use_knot_distance="true"
       apply_no_radius="true"
       apply_with_radius="true"
       only_selected="false"
       hide_knots="false" />
    <inkscape:path-effect
       effect="fillet_chamfer"
       id="path-effect8-7"
       is_visible="true"
       lpeversion="1"
       nodesatellites_param="F,0,0,1,0,0,0,1 @ F,0,0,1,0,1.0001235,0,1 @ F,0,0,1,0,0,0,1 @ F,0,0,1,0,4.0000274,0,1 @ F,0,0,1,0,3.9998126,0,1 @ F,0,0,1,0,2.9998125,0,1 @ F,0,0,1,0,0,0,1 @ F,0,0,1,0,0.36614822,0,1 @ F,0,0,1,0,0,0,1 @ F,0,0,1,0,0,0,1 @ F,0,0,1,0,5.0000274,0,1 @ F,0,0,1,0,0,0,1 @ F,0,0,1,0,2.9999371,0,1 @ F,0,0,1,0,0,0,1"
       radius="0"
       unit="px"
       method="auto"
       mode="F"
       chamfer_steps="1"
       flexible="false"
       use_knot_distance="true"
       apply_no_radius="true"
       apply_with_radius="true"
       only_selected="false"
       hide_knots="false" />
  </defs>
  <g
     inkscape:label="Layer 1"
     inkscape:groupmode="layer"
     id="layer1"
     transform="translate(-75.000001,-110)">
    <path
       id="rect1"
       style="fill:#000000;stroke-width:0.264583"
       d="M 132.00014 110 L 132.00014 125.00012 L 132.00014 125.36857 C 132.00004 126.26956 132.40928 127.61084 133.02488 128.26762 C 133.43024 128.70008 133.9295 129.15864 134.47286 129.49545 C 135.22789 129.96347 136.73033 129.99984 137.63132 129.99981 L 140.03634 129.99981 C 140.88073 130.00284 142.98809 130.00229 145.0841 129.9993 C 147.81137 129.99541 150.01867 127.77445 150.01403 125.04714 L 150.00007 117.00009 C 149.99807 115.8921 149.10768 115.00021 147.99968 115.00021 L 146.99974 115.00021 L 142.00005 115.00021 C 140.89205 115.00021 140.00017 115.8921 140.00017 117.00009 L 140.00017 121.99978 C 140.00017 123.10778 140.89205 124.00018 142.00005 124.00018 L 144.5632 124.00018 A 0.43686001 0.43686001 0 0 1 144.99986 124.43684 L 144.99986 124.56294 A 0.43677045 0.43677045 0 0 1 144.5632 125.00012 L 138.00029 125.00012 A 1.0001085 1.0001085 0 0 1 136.99983 124.00018 L 136.99983 110 L 132.00014 110 z M 144.99986 117.90856 A 1.5000017 1.4999977 0 0 1 146.50003 119.40873 A 1.5000017 1.4999977 0 0 1 144.99986 120.90838 A 1.5000017 1.4999977 0 0 1 143.50021 119.40873 A 1.5000017 1.4999977 0 0 1 144.99986 117.90856 z " />
    <ellipse
       style="fill:#000000;stroke-width:0.396874"
       id="path4"
       cx="145"
       cy="112.5"
       rx="1.5000017"
       ry="1.4999977" />
    <ellipse
       style="fill:#000000;stroke-width:0.396874"
       id="ellipse8"
       cx="123.62427"
       cy="116.62242"
       rx="1.5000017"
       ry="1.4999977" />
    <ellipse
       style="fill:#000000;stroke-width:0.396874"
       id="path4-1"
       cx="115.50001"
       cy="116.62242"
       rx="1.5000017"
       ry="1.4999977" />
    <ellipse
       style="fill:#000000;stroke-width:0.501479"
       id="path4-1-0"
       cx="104.99371"
       cy="177.76065"
       rx="1.8953611"
       ry="1.8953562" />
    <path
       id="rect4"
       style="fill:#000000;stroke-width:0.23665"
       d="M 111.99968 117.99923 A 3.9994509 3.9994509 0 0 0 107.99993 121.99898 L 107.99993 125.08717 A 3.0003077 3.0003077 0 0 0 110.99975 128.0875 L 114.05796 128.08802 L 114.05796 128.63372 A 0.36609983 0.36609983 0 0 1 113.69209 128.99959 L 107.99993 128.99856 L 107.99993 133.18797 L 114.05847 133.18848 A 4.999373 4.999373 0 0 0 119.05817 128.18879 L 119.05817 127.99965 L 124.99992 127.99965 A 2.9999371 2.9999371 0 0 0 127.99974 124.99983 L 127.99974 118.11653 L 123.00005 118.11653 L 123.00005 122.00002 A 1.0001235 1.0001235 0 0 1 122.00011 122.99996 L 119.05817 122.99996 L 119.05817 122.00002 A 4.0002211 4.0002211 0 0 0 115.05841 117.99975 L 111.99968 117.99923 z M 113.49985 121.55818 A 1.5000017 1.4999977 0 0 1 115.00002 123.05835 A 1.5000017 1.4999977 0 0 1 113.49985 124.558 A 1.5000017 1.4999977 0 0 1 112.0002 123.05835 A 1.5000017 1.4999977 0 0 1 113.49985 121.55818 z "
       transform="translate(2.0000029,1.9417666)" />
    <path
       id="rect4-5"
       style="fill:#000000;stroke-width:0.23665"
       d="m 113.94152,139.91173 c -2.20887,-1.7e-4 -3.99964,1.79037 -3.99976,3.99924 v 3.08818 c -2e-5,1.65685 1.34297,3.00007 2.99982,3.00034 L 116.0003,150 v 0.54571 c 1.5e-4,0.20241 -0.16397,0.36653 -0.36638,0.36638 l -5.69216,-0.001 v 4.18889 l 6.05854,0.001 c 2.76133,1.8e-4 4.99988,-2.23836 4.9997,-4.99969 v -5.18883 -0.99994 c 3.1e-4,-2.2093 -1.79046,-4.00054 -3.99976,-4.00079 z m 1.50016,3.55896 c 0.82836,-9e-5 1.49998,0.67129 1.50017,1.49965 9e-5,0.82855 -0.67161,1.50025 -1.50017,1.50016 -0.82835,-1.9e-4 -1.49974,-0.67181 -1.49965,-1.50016 1.9e-4,-0.82815 0.6715,-1.49946 1.49965,-1.49965 z"
       sodipodi:nodetypes="ccssccccccsccccccccc" />
    <path
       id="rect2"
       style="fill:#000000;stroke-width:0.227414"
       d="m 75.078668,120 v 5.50728 5.50728 l 2.75e-4,0.004 a 8.5646872,8.5646872 43.046767 0 0 8.544788,7.98119 h 0.03501 a 9.2958598,9.2958598 139.28558 0 0 9.19204,-7.91043 l 0.164215,-1.08953 h 1.897033 a 3.3785186,3.3785186 148.28624 0 0 3.021643,-1.86721 L 98.000002,128 l 0.105623,0.21119 A 3.2361719,3.2361719 31.714644 0 0 101,129.99982 h 2.00043 c 2.21315,8e-5 4.01119,-1.78665 4.02508,-3.99976 l 0.0377,-6.00015 h -4.06332 v 4.00027 c -10e-5,0.55221 -0.44772,0.99983 -0.99993,0.99994 H 101.015 c -0.55221,-10e-5 -0.99984,-0.44773 -0.99994,-0.99994 v -3.00033 h -4.015255 v 2.98431 c -3.6e-5,0.56108 -0.454875,1.01592 -1.015959,1.01596 h -0.968933 c -0.552209,-10e-5 -0.999838,-0.44773 -0.999939,-0.99994 v -4.00027 H 89.000232 V 129 c -0.03391,2.99013 -0.928585,3.88507 -2.592314,4.89596 -1.324556,0.80481 -3.54937,0.90807 -4.878127,0.11087 -1.261046,-0.75657 -2.134653,-1.83054 -2.120658,-4.99227 V 120 Z"
       inkscape:path-effect="#path-effect10"
       inkscape:original-d="m 75.078668,120 v 5.50728 5.50728 l 0.545283,7.98522 h 16.034565 l 1.356482,-8.99996 h 3.98477 L 98.000002,128 l 1.000157,1.99982 h 4.000271 c 2.21315,8e-5 4.01119,-1.78665 4.02508,-3.99976 l 0.0377,-6.00015 h -4.06332 v 4.00027 c -10e-5,0.55221 -0.44772,0.99983 -0.99993,0.99994 H 101.015 c -0.55221,-10e-5 -0.99984,-0.44773 -0.99994,-0.99994 v -3.00033 h -4.015255 v 2.98431 c -3.6e-5,0.56108 -0.454875,1.01592 -1.015959,1.01596 h -0.968933 c -0.552209,-10e-5 -0.999838,-0.44773 -0.999939,-0.99994 v -4.00027 H 89.000232 V 129 c -0.04772,4.20733 -1.799615,4.26649 -5.000231,6.33728 -2.429731,-1.54254 -4.612928,-1.3391 -4.590868,-6.32272 V 120 Z"
       sodipodi:nodetypes="cccccccccccccccccccccccccccccc" />
    <path
       id="rect3"
       style="fill:#000000;stroke-width:0.262477"
       d="m 131.75527,140.3134 -0.009,15.20055 a 4.3242755,4.3242755 45.490476 0 0 4.25267,4.3261 l 8.3981,0.13909 a 3.3224492,3.3224492 160.18803 0 0 2.21599,-0.79832 l 0.01,-0.008 a 4.3137126,4.3137126 93.563318 0 0 0.38483,-6.17983 l -0.047,-0.0516 -2.94976,-2.54714 a 0.54043012,0.54043012 88.929094 0 1 -0.015,-0.80459 L 150,144 l -3,-3.48995 -8.00445,7.84145 a 2.0990273,2.0990273 88.960381 0 0 0.0554,3.05115 l 3.20973,2.92385 a 0.38721617,0.38721617 111.16642 0 1 -0.26077,0.67347 l -4.24456,-1e-4 A 0.99986997,0.99986997 45.000734 0 1 136.75548,154 v -13.6866 z"
       sodipodi:nodetypes="ccccccccccccc"
       inkscape:path-effect="#path-effect11"
       inkscape:original-d="m 131.75527,140.3134 -0.0109,19.45618 13.91246,0.23042 4.34332,-3.7191 -3.03909,-3.33985 L 143.55513,150 150,144 l -3,-3.48995 -9.59166,9.39633 L 143,155 l -6.24452,-1.6e-4 V 140.3134 Z"
       transform="translate(-16.623209,18.334365)" />
    <path
       style="fill:#000000;stroke-width:0.264583"
       d="m 126.38046,163.32965 c -1.81459,-0.88897 -3.20829,-1.95061 -4.37052,-2.62805 -1.01712,-0.59286 -2.98618,-0.62542 -4.17824,-0.55635 l -1.12186,0.065 a 4.2085275,4.2085275 149.33232 0 0 -3.32633,1.9725 L 111,166 l 4.59053,2.14896 c 0,0 0.33605,-0.5381 0.94895,-1.50845 0.0897,-0.14197 0.17724,-0.27995 0.2615,-0.41223 0.49104,-0.77087 1.61234,-1.19516 2.49404,-0.95438 l 2.4323,0.66421 c 0.20479,0.0559 0.21145,0.16635 0.0176,0.25287 -1.25394,0.55969 -5.5496,2.6632 -8.04184,6.21355 -4.66411,6.64431 -2.89194,14.49779 3.16203,17.47742 3.99547,1.96649 12.42757,-0.28439 12.42757,-0.28439 l -1.05402,-4.61767 c -8.43209,2.36679 -11.4316,-0.10058 -12.64813,-3.26039 -1.01277,-2.63057 1.26619,-7.185 4.21604,-9.00351 5.47681,-3.37631 12.12766,-3.90795 12.12766,-3.90795 L 132,164.5 l -1.46977,-0.14105 c -1.1886,-0.11406 -3.07827,-0.50437 -4.14977,-1.0293 z"
       id="path7"
       sodipodi:nodetypes="cscccsccssccssccc"
       inkscape:path-effect="#path-effect7"
       inkscape:original-d="m 128.37808,164.15242 c -4.21605,-1.4068 -6.51659,-4.24067 -8.38797,-4.13224 l -5.4536,0.316 L 111,166 l 4.59053,2.14896 c 0,0 0.33605,-0.5381 0.94895,-1.50845 0.63163,-1 1.15907,-1.80258 1.15907,-1.80258 l 4.39958,1.20145 c 0,0 -5.45359,2.17486 -8.39505,6.36515 -4.66411,6.64431 -2.89194,14.49779 3.16203,17.47742 3.99547,1.96649 12.42757,-0.28439 12.42757,-0.28439 l -1.05402,-4.61767 c -8.43209,2.36679 -11.4316,-0.10058 -12.64813,-3.26039 -1.01277,-2.63057 1.26619,-7.185 4.21604,-9.00351 5.47681,-3.37631 12.12766,-3.90795 12.12766,-3.90795 L 132,164.5 Z"
       transform="matrix(0.94875625,0,0,0.88854309,-12.841366,18.46686)" />
  </g>
</svg>
