<?xml version="1.0" encoding="UTF-8" standalone="no"?>
<!-- Created with Inkscape (http://www.inkscape.org/) -->

<svg
   width="85.000008mm"
   height="95mm"
   viewBox="0 0 85.000008 95"
   version="1.1"
   id="svg1"
   sodipodi:docname="fanus-kaj.svg"
   inkscape:version="1.4.1 (93de688d07, 2025-03-30)"
   xmlns:inkscape="http://www.inkscape.org/namespaces/inkscape"
   xmlns:sodipodi="http://sodipodi.sourceforge.net/DTD/sodipodi-0.dtd"
   xmlns="http://www.w3.org/2000/svg"
   xmlns:svg="http://www.w3.org/2000/svg">
  <sodipodi:namedview
     id="namedview1"
     pagecolor="#ffffff"
     bordercolor="#000000"
     borderopacity="0.25"
     inkscape:showpageshadow="2"
     inkscape:pageopacity="0.0"
     inkscape:pagecheckerboard="0"
     inkscape:deskcolor="#d1d1d1"
     inkscape:document-units="mm"
     showgrid="true"
     inkscape:zoom="1.4992291"
     inkscape:cx="94.715345"
     inkscape:cy="163.75083"
     inkscape:window-width="1536"
     inkscape:window-height="804"
     inkscape:window-x="0"
     inkscape:window-y="0"
     inkscape:window-maximized="1"
     inkscape:current-layer="layer1"
     showguides="true">
    <inkscape:grid
       id="grid1"
       units="mm"
       originx="-70"
       originy="-100"
       spacingx="0.99999998"
       spacingy="1"
       empcolor="#0099e5"
       empopacity="0.30196078"
       color="#0099e5"
       opacity="0.14901961"
       empspacing="5"
       enabled="true"
       visible="true" />
    <inkscape:page
       x="0"
       y="0"
       width="85.000015"
       height="95"
       id="page15"
       margin="0"
       bleed="0" />
  </sodipodi:namedview>
  <defs
     id="defs1">
    <inkscape:path-effect
       effect="fillet_chamfer"
       id="path-effect11"
       is_visible="true"
       lpeversion="1"
       nodesatellites_param="F,0,0,1,0,0,0,1 @ F,0,0,1,0,4.2556331,0,1 @ F,0,0,1,0,1.2594813,0,1 @ F,0,0,1,0,4.4457952,0,1 @ F,0,0,1,0,0,0,1 @ F,0,0,1,0,0.60270429,0,1 @ F,0,0,1,0,0,0,1 @ F,0,0,1,0,0,0,1 @ F,0,0,1,0,2.2219109,0,1 @ F,0,0,1,0,1.0001168,0,1 @ F,0,0,1,0,0.99984435,0,1 @ F,0,0,1,0,0,0,1"
       radius="0"
       unit="px"
       method="auto"
       mode="F"
       chamfer_steps="1"
       flexible="false"
       use_knot_distance="true"
       apply_no_radius="true"
       apply_with_radius="true"
       only_selected="false"
       hide_knots="false" />
    <inkscape:path-effect
       effect="fillet_chamfer"
       id="path-effect7"
       is_visible="true"
       lpeversion="1"
       nodesatellites_param="F,0,0,1,0,2.1620346,0,1 @ F,0,0,1,0,2.1620346,0,1 @ F,0,0,1,0,2.1769766,0,1 @ F,0,0,1,0,0,0,1 @ F,0,0,1,0,0,0,1 @ F,0,0,1,0,0,0,1 @ F,0,0,1,0,0.96656971,0,1 @ F,0,0,1,0,0.83241729,0,1 @ F,0,0,1,0,0,0,1 @ F,0,0,1,0,0,0,1 @ F,0,0,1,0,0,0,1 @ F,0,0,1,0,0,0,1 @ F,0,0,1,0,0,0,1 @ F,0,0,1,0,0,0,1 @ F,0,0,1,0,0,0,1 @ F,0,0,1,0,0,0,1"
       radius="0"
       unit="px"
       method="auto"
       mode="F"
       chamfer_steps="1"
       flexible="false"
       use_knot_distance="true"
       apply_no_radius="true"
       apply_with_radius="true"
       only_selected="false"
       hide_knots="false" />
    <inkscape:path-effect
       effect="fillet_chamfer"
       id="path-effect10"
       is_visible="true"
       lpeversion="1"
       nodesatellites_param="F,0,0,1,0,0,0,1 @ F,0,0,1,0,0,0,1 @ F,0,0,1,0,0,0,1 @ F,0,0,1,0,7.99978,0,1 @ F,0,0,1,0,7.9997726,0,1 @ F,0,0,1,0,0,0,1 @ F,0,0,1,0,2.0877368,0,1 @ F,0,0,1,0,0,0,1 @ F,0,0,1,0,1.9998433,0,1 @ F,0,0,1,0,0,0,1 @ F,0,0,1,0,0,0,1 @ F,0,0,1,0,0,0,1 @ F,0,0,1,0,0,0,1 @ F,0,0,1,0,0,0,1 @ F,0,0,1,0,0,0,1 @ F,0,0,1,0,0,0,1 @ F,0,0,1,0,0,0,1 @ F,0,0,1,0,0,0,1 @ F,0,0,1,0,0,0,1 @ F,0,0,1,0,0,0,1 @ F,0,0,1,0,0,0,1 @ F,0,0,1,0,0,0,1 @ F,0,0,1,0,0,0,1 @ F,0,0,1,0,0,0,1 @ F,0,0,1,0,0,0,1 @ F,0,0,1,0,0,0,1 @ F,0,0,1,0,2.8068942,0,1 @ F,0,0,1,0,0,0,1 @ F,0,0,1,0,0,0,1"
       radius="0"
       unit="px"
       method="auto"
       mode="F"
       chamfer_steps="1"
       flexible="false"
       use_knot_distance="true"
       apply_no_radius="true"
       apply_with_radius="true"
       only_selected="false"
       hide_knots="false" />
    <inkscape:path-effect
       effect="fillet_chamfer"
       id="path-effect9"
       is_visible="true"
       lpeversion="1"
       nodesatellites_param="F,0,0,1,0,0,0,1 @ F,0,0,1,0,0,0,1 @ F,0,0,1,0,0,0,1 @ F,0,0,1,0,0,0,1 @ F,0,0,1,0,0,0,1 @ F,0,0,1,0,3.999743,0,1 @ F,0,0,1,0,0,0,1 @ F,0,0,1,0,0,0,1 @ F,0,0,1,0,1.0001235,0,1 @ F,0,0,1,0,1.0001235,0,1 @ F,0,0,1,0,0,0,1 @ F,0,0,1,0,0,0,1 @ F,0,0,1,0,1.0160251,0,1 @ F,0,0,1,0,1.0001235,0,1 @ F,0,0,1,0,0,0,1 @ F,0,0,1,0,0,0,1 @ F,0,0,1,0,0,0,1 @ F,0,0,1,0,0,0,1 @ F,0,0,1,0,0,0,1"
       radius="0"
       unit="px"
       method="auto"
       mode="F"
       chamfer_steps="1"
       flexible="false"
       use_knot_distance="true"
       apply_no_radius="true"
       apply_with_radius="true"
       only_selected="false"
       hide_knots="false" />
    <inkscape:path-effect
       effect="fillet_chamfer"
       id="path-effect8"
       is_visible="true"
       lpeversion="1"
       nodesatellites_param="F,0,0,1,0,0,0,1 @ F,0,0,1,0,1.0001235,0,1 @ F,0,0,1,0,0,0,1 @ F,0,0,1,0,4.0000274,0,1 @ F,0,0,1,0,3.9998126,0,1 @ F,0,0,1,0,2.9998125,0,1 @ F,0,0,1,0,0,0,1 @ F,0,0,1,0,0.36614822,0,1 @ F,0,0,1,0,0,0,1 @ F,0,0,1,0,0,0,1 @ F,0,0,1,0,5.0000274,0,1 @ F,0,0,1,0,0,0,1 @ F,0,0,1,0,2.9999371,0,1 @ F,0,0,1,0,0,0,1"
       radius="0"
       unit="px"
       method="auto"
       mode="F"
       chamfer_steps="1"
       flexible="false"
       use_knot_distance="true"
       apply_no_radius="true"
       apply_with_radius="true"
       only_selected="false"
       hide_knots="false" />
    <inkscape:path-effect
       effect="fillet_chamfer"
       id="path-effect4"
       is_visible="true"
       lpeversion="1"
       nodesatellites_param="F,0,0,1,0,0,0,1 @ F,0,0,1,0,0,0,1 @ F,0,0,1,0,1.6313886,0,1 @ F,0,0,1,0,1.6313886,0,1 @ F,0,0,1,0,0,0,1 @ F,0,0,1,0,4.9382405,0,1 @ F,0,0,1,0,0,0,1 @ F,0,0,1,0,0,0,1 @ F,0,0,1,0,0,0,1 @ F,0,0,1,0,0,0,1 @ F,0,0,1,0,0,0,1 @ F,0,0,1,0,0,0,1 @ F,0,0,1,0,0,0,1 @ F,0,0,1,0,0.43681195,0,1 @ F,0,0,1,0,0.43681195,0,1 @ F,0,0,1,0,1.0001235,0,1 @ F,0,0,1,0,0,0,1"
       radius="0"
       unit="px"
       method="auto"
       mode="F"
       chamfer_steps="1"
       flexible="false"
       use_knot_distance="true"
       apply_no_radius="true"
       apply_with_radius="true"
       only_selected="false"
       hide_knots="false" />
    <inkscape:path-effect
       effect="fillet_chamfer"
       id="path-effect8-7"
       is_visible="true"
       lpeversion="1"
       nodesatellites_param="F,0,0,1,0,0,0,1 @ F,0,0,1,0,1.0001235,0,1 @ F,0,0,1,0,0,0,1 @ F,0,0,1,0,4.0000274,0,1 @ F,0,0,1,0,3.9998126,0,1 @ F,0,0,1,0,2.9998125,0,1 @ F,0,0,1,0,0,0,1 @ F,0,0,1,0,0.36614822,0,1 @ F,0,0,1,0,0,0,1 @ F,0,0,1,0,0,0,1 @ F,0,0,1,0,5.0000274,0,1 @ F,0,0,1,0,0,0,1 @ F,0,0,1,0,2.9999371,0,1 @ F,0,0,1,0,0,0,1"
       radius="0"
       unit="px"
       method="auto"
       mode="F"
       chamfer_steps="1"
       flexible="false"
       use_knot_distance="true"
       apply_no_radius="true"
       apply_with_radius="true"
       only_selected="false"
       hide_knots="false" />
  </defs>
  <g
     inkscape:label="Layer 1"
     inkscape:groupmode="layer"
     id="layer1"
     transform="translate(-70.000001,-100)">
    <path
       id="rect1"
       style="fill:#000000;stroke:none;stroke-width:0.4;stroke-dasharray:none"
       d="m 132.00014,110 v 15.00012 0.36845 c -10e-5,0.90099 0.40914,2.24227 1.02474,2.89905 0.40536,0.43246 0.90462,0.89102 1.44798,1.22783 0.75503,0.46802 2.25747,0.50439 3.15846,0.50436 h 2.40502 c 0.84439,0.003 2.95175,0.002 5.04776,-5.1e-4 2.72727,-0.004 4.93457,-2.22485 4.92993,-4.95216 l -0.014,-8.04705 c -0.002,-1.10799 -0.89239,-1.99988 -2.00039,-1.99988 h -0.99994 -4.99969 c -1.108,0 -1.99988,0.89189 -1.99988,1.99988 v 4.99969 c 0,1.108 0.89188,2.0004 1.99988,2.0004 h 2.56315 a 0.43686001,0.43686001 0 0 1 0.43666,0.43666 v 0.1261 a 0.43677045,0.43677045 0 0 1 -0.43666,0.43718 h -6.56291 a 1.0001085,1.0001085 0 0 1 -1.00046,-0.99994 V 110 Z m 12.99972,7.90856 a 1.5000017,1.4999977 0 0 1 1.50017,1.50017 1.5000017,1.4999977 0 0 1 -1.50017,1.49965 1.5000017,1.4999977 0 0 1 -1.49965,-1.49965 1.5000017,1.4999977 0 0 1 1.49965,-1.50017 z" />
    <ellipse
       style="fill:#000000;stroke:none;stroke-width:0.501479"
       id="path4-1-0"
       cx="89.433182"
       cy="161.55409"
       rx="1.8953611"
       ry="1.8953562" />
    <ellipse
       style="fill:#000000;stroke-width:0.4;stroke:none;stroke-dasharray:none"
       id="path4-1-0-3"
       cx="122.10464"
       cy="117"
       rx="1.8953611"
       ry="1.8953562" />
    <path
       id="rect4"
       style="fill:#000000;stroke-width:0.4;stroke:none;stroke-dasharray:none"
       d="m 111.99968,117.99923 a 3.9994509,3.9994509 0 0 0 -3.99975,3.99975 v 3.08819 a 3.0003077,3.0003077 0 0 0 2.99982,3.00033 l 3.05821,5.2e-4 v 0.5457 a 0.36609983,0.36609983 0 0 1 -0.36587,0.36587 l -5.69216,-0.001 v 4.18941 l 6.05854,5.1e-4 a 4.999373,4.999373 0 0 0 4.9997,-4.99969 v -0.18914 h 5.94175 a 2.9999371,2.9999371 0 0 0 2.99982,-2.99982 v -6.8833 h -4.99969 v 3.88349 a 1.0001235,1.0001235 0 0 1 -0.99994,0.99994 h -2.94194 v -0.99994 a 4.0002211,4.0002211 0 0 0 -3.99976,-4.00027 z m 1.50017,3.55895 a 1.5000017,1.4999977 0 0 1 1.50017,1.50017 1.5000017,1.4999977 0 0 1 -1.50017,1.49965 1.5000017,1.4999977 0 0 1 -1.49965,-1.49965 1.5000017,1.4999977 0 0 1 1.49965,-1.50017 z"
       transform="translate(2.0000029,1.9417666)" />
    <path
       id="rect4-5"
       style="fill:#000000;stroke:none;stroke-width:0.4;stroke-dasharray:none"
       d="m 131.15368,139.00014 c -2.20887,-1.7e-4 -3.99964,1.79037 -3.99976,3.99924 v 3.08818 c -2e-5,1.65685 1.34297,3.00007 2.99982,3.00034 l 3.05872,5.1e-4 v 0.54571 c 1.5e-4,0.20241 -0.16397,0.36653 -0.36638,0.36638 l -5.69216,-10e-4 v 4.18889 l 6.05854,0.001 c 2.76133,1.8e-4 4.99988,-2.23836 4.9997,-4.99969 v -5.18883 -0.99994 c 3.1e-4,-2.2093 -1.79046,-4.00054 -3.99976,-4.00079 z m 1.50016,3.55896 c 0.82836,-9e-5 1.49998,0.67129 1.50017,1.49965 9e-5,0.82855 -0.67161,1.50025 -1.50017,1.50016 -0.82835,-1.9e-4 -1.49974,-0.67181 -1.49965,-1.50016 1.9e-4,-0.82815 0.6715,-1.49946 1.49965,-1.49965 z"
       sodipodi:nodetypes="ccssccccccsccccccccc" />
    <path
       id="rect2"
       style="fill:#000000;stroke:none;stroke-width:0.4;stroke-dasharray:none"
       d="m 75.078668,123 v 2.50728 5.50728 l 2.75e-4,0.004 a 8.5646872,8.5646872 43.046767 0 0 8.544788,7.98119 h 0.03501 a 9.2958598,9.2958598 139.28558 0 0 9.19204,-7.91043 l 0.164215,-1.08953 h 1.897033 a 3.3785186,3.3785186 148.28624 0 0 3.021643,-1.86721 L 98.000002,128 l 0.105623,0.21119 A 3.2361719,3.2361719 31.714644 0 0 101,129.99982 h 2.00043 c 2.21315,8e-5 4.01119,-1.78665 4.02508,-3.99976 l 0.0377,-6.00015 h -4.06332 v 4.00027 c -10e-5,0.55221 -0.44772,0.99983 -0.99993,0.99994 H 101.015 c -0.55221,-10e-5 -0.99984,-0.44773 -0.99994,-0.99994 v -3.00033 h -4.015255 v 2.98431 c -3.6e-5,0.56108 -0.454875,1.01592 -1.015959,1.01596 h -0.968933 c -0.552209,-10e-5 -0.999838,-0.44773 -0.999939,-0.99994 v -4.00027 H 89.000232 V 129 c -0.03391,2.99013 -0.928585,3.88507 -2.592314,4.89596 -1.324556,0.80481 -3.54937,0.90807 -4.878127,0.11087 -1.261046,-0.75657 -2.134653,-1.83054 -2.120658,-4.99227 V 123 Z"
       inkscape:path-effect="#path-effect10"
       inkscape:original-d="m 75.078668,123 v 2.50728 5.50728 l 0.545283,7.98522 h 16.034565 l 1.356482,-8.99996 h 3.98477 L 98.000002,128 l 1.000157,1.99982 h 4.000271 c 2.21315,8e-5 4.01119,-1.78665 4.02508,-3.99976 l 0.0377,-6.00015 h -4.06332 v 4.00027 c -10e-5,0.55221 -0.44772,0.99983 -0.99993,0.99994 H 101.015 c -0.55221,-10e-5 -0.99984,-0.44773 -0.99994,-0.99994 v -3.00033 h -4.015255 v 2.98431 c -3.6e-5,0.56108 -0.454875,1.01592 -1.015959,1.01596 h -0.968933 c -0.552209,-10e-5 -0.999838,-0.44773 -0.999939,-0.99994 v -4.00027 H 89.000232 V 129 c -0.04772,4.20733 -1.799615,4.26649 -5.000231,6.33728 -2.429731,-1.54254 -4.612928,-1.3391 -4.590868,-6.32272 V 123 Z"
       sodipodi:nodetypes="cccccccccccccccccccccccccccccc"
       transform="translate(3.9448292e-5,-1.2023424e-4)" />
    <path
       id="rect3"
       style="fill:#000000;stroke:none;stroke-width:0.4;stroke-dasharray:none"
       d="m 132.06411,140.3134 -0.0346,14.8662 a 4.3182637,4.3182637 45.551864 0 0 4.24512,4.32769 l 8.0893,0.13702 a 3.5879197,3.5879197 161.62759 0 0 2.25563,-0.74914 4.0249283,4.0249283 93.765808 0 0 0.3885,-5.90249 l -0.047,-0.0516 -2.94978,-2.54715 a 0.54042854,0.54042854 88.929011 0 1 -0.015,-0.80458 L 150,144 l -3,-3.48995 -8.00445,7.84145 a 2.126906,2.126906 89.33789 0 0 0.0355,3.07267 l 3.23853,3.02912 a 0.39481329,0.39481329 111.54392 0 1 -0.26971,0.68316 l -4.37683,-1.1e-4 a 0.99986944,0.99986944 45.000719 0 1 -0.99984,-0.99987 V 140.3134 Z"
       sodipodi:nodetypes="ccccccccccccc"
       inkscape:path-effect="#path-effect11"
       inkscape:original-d="m 132.06411,140.3134 -0.0445,19.12182 13.60362,0.23042 4.37694,-3.38474 -3.03909,-3.33985 L 143.55513,150 150,144 l -3,-3.48995 -9.59166,9.39633 5.59166,5.23009 -6.37679,-1.6e-4 V 140.3134 Z"
       transform="translate(-34.811469,-0.13639385)" />
    <path
       style="fill:#000000;stroke:none;stroke-width:0.435656;stroke-dasharray:none"
       d="m 125.80371,162.77943 c -1.68666,-0.7385 -2.94438,-1.50822 -4.00644,-2.01351 -1.06808,-0.50815 -3.03118,-0.52322 -4.22383,-0.4653 l -0.12266,0.006 a 4.2944584,4.2944584 150.33772 0 0 -3.37457,1.92188 l -2.51819,3.81092 3.77674,1.88614 c 0,0 0.33605,-0.5381 0.94895,-1.50845 0.27155,-0.42991 0.55392,-0.86464 0.78762,-1.22058 0.29296,-0.4462 0.93542,-0.64327 1.43034,-0.44322 l 3.69519,1.49368 c 0.42623,0.17229 0.41204,0.41043 -0.0242,0.55537 -1.79226,0.59549 -6.16717,2.32228 -8.46959,5.60221 -2.93199,4.1768 -3.02665,8.29487 -1.18867,11.51767 2.38195,4.17663 7.17726,6.73665 16.68852,5.45514 l -0.96427,-4.39745 c -3.14848,0.44318 -4.70798,-0.007 -6.41381,-0.35403 -8.08669,-1.64282 -6.47695,-10.56982 1.08796,-13.38594 3.85168,-1.43382 9.02142,-1.83639 9.02142,-1.83639 L 132,164.5 l -2.07066,-0.46723 c -1.16477,-0.26283 -3.0322,-0.77459 -4.12563,-1.25334 z"
       id="path7"
       sodipodi:nodetypes="cscccsccssccssccc"
       inkscape:path-effect="#path-effect7"
       inkscape:original-d="m 127.82033,163.55688 c -4.21605,-1.4068 -6.21387,-3.41178 -8.0874,-3.36114 l -4.45656,0.21645 -3.71835,5.62719 3.77674,1.88614 c 0,0 0.33605,-0.5381 0.94895,-1.50845 0.63163,-1 1.32183,-2.02603 1.32183,-2.02603 l 5.36307,2.16787 c 0,0 -6.32407,1.65533 -9.26553,5.84562 -2.93199,4.1768 -3.02665,8.29487 -1.18867,11.51767 2.38195,4.17663 7.17726,6.73665 16.68852,5.45514 l -0.96427,-4.39745 c -3.14848,0.44318 -4.70798,-0.007 -6.41381,-0.35403 -8.08669,-1.64282 -6.47695,-10.56982 1.08796,-13.38594 3.85168,-1.43382 9.02142,-1.83639 9.02142,-1.83639 L 132,164.5 Z"
       transform="matrix(0.94875625,0,0,0.88854309,-29.25355,4.0422396)" />
    <ellipse
       style="fill:#000000;stroke:none;stroke-width:0.4;stroke-dasharray:none"
       id="path4-1-0-3-1"
       cx="145.10464"
       cy="112.3662"
       rx="1.8953611"
       ry="1.8953562" />
  </g>
</svg>
