<?xml version="1.0" encoding="UTF-8" standalone="no"?>
<!-- Created with Inkscape (http://www.inkscape.org/) -->

<svg
   width="85.000008mm"
   height="95mm"
   viewBox="0 0 85.000008 95"
   version="1.1"
   id="svg1"
   sodipodi:docname="fanus-kaj.svg"
   inkscape:version="1.4.1 (93de688d07, 2025-03-30)"
   xmlns:inkscape="http://www.inkscape.org/namespaces/inkscape"
   xmlns:sodipodi="http://sodipodi.sourceforge.net/DTD/sodipodi-0.dtd"
   xmlns="http://www.w3.org/2000/svg"
   xmlns:svg="http://www.w3.org/2000/svg">
  <sodipodi:namedview
     id="namedview1"
     pagecolor="#ffffff"
     bordercolor="#000000"
     borderopacity="0.25"
     inkscape:showpageshadow="2"
     inkscape:pageopacity="0.0"
     inkscape:pagecheckerboard="0"
     inkscape:deskcolor="#d1d1d1"
     inkscape:document-units="mm"
     showgrid="true"
     inkscape:zoom="2.1202301"
     inkscape:cx="158.70919"
     inkscape:cy="133.7119"
     inkscape:window-width="1536"
     inkscape:window-height="804"
     inkscape:window-x="0"
     inkscape:window-y="0"
     inkscape:window-maximized="1"
     inkscape:current-layer="layer1"
     showguides="true">
    <inkscape:grid
       id="grid1"
       units="mm"
       originx="-70"
       originy="-100"
       spacingx="0.99999998"
       spacingy="1"
       empcolor="#0099e5"
       empopacity="0.30196078"
       color="#0099e5"
       opacity="0.14901961"
       empspacing="5"
       enabled="true"
       visible="true" />
    <inkscape:page
       x="0"
       y="0"
       width="85.000015"
       height="95"
       id="page15"
       margin="0"
       bleed="0" />
  </sodipodi:namedview>
  <defs
     id="defs1">
    <inkscape:path-effect
       effect="fillet_chamfer"
       id="path-effect11"
       is_visible="true"
       lpeversion="1"
       nodesatellites_param="F,0,0,1,0,0,0,1 @ F,0,0,1,0,4.2556331,0,1 @ F,0,0,1,0,1.2594813,0,1 @ F,0,0,1,0,4.4457952,0,1 @ F,0,0,1,0,0,0,1 @ F,0,0,1,0,0.60270429,0,1 @ F,0,0,1,0,0,0,1 @ F,0,0,1,0,0,0,1 @ F,0,0,1,0,2.2219109,0,1 @ F,0,0,1,0,1.0001168,0,1 @ F,0,0,1,0,0.99984435,0,1 @ F,0,0,1,0,0,0,1"
       radius="0"
       unit="px"
       method="auto"
       mode="F"
       chamfer_steps="1"
       flexible="false"
       use_knot_distance="true"
       apply_no_radius="true"
       apply_with_radius="true"
       only_selected="false"
       hide_knots="false" />
    <inkscape:path-effect
       effect="fillet_chamfer"
       id="path-effect7"
       is_visible="true"
       lpeversion="1"
       nodesatellites_param="F,0,0,1,0,2.1620346,0,1 @ F,0,0,1,0,2.1620346,0,1 @ F,0,0,1,0,2.1769766,0,1 @ F,0,0,1,0,0,0,1 @ F,0,0,1,0,0,0,1 @ F,0,0,1,0,0,0,1 @ F,0,0,1,0,1.6549321,0,1 @ F,0,0,1,0,0.83241729,0,1 @ F,0,0,1,0,0,0,1 @ F,0,0,1,0,0,0,1 @ F,0,0,1,0,0,0,1 @ F,0,0,1,0,0,0,1 @ F,0,0,1,0,1.0715935,0,1 @ F,0,0,1,0,2.2029523,0,1 @ F,0,0,1,0,0,0,1 @ F,0,0,1,0,0,0,1"
       radius="0"
       unit="px"
       method="auto"
       mode="F"
       chamfer_steps="1"
       flexible="false"
       use_knot_distance="true"
       apply_no_radius="true"
       apply_with_radius="true"
       only_selected="false"
       hide_knots="false" />
    <inkscape:path-effect
       effect="fillet_chamfer"
       id="path-effect10"
       is_visible="true"
       lpeversion="1"
       nodesatellites_param="F,0,0,1,0,0,0,1 @ F,0,0,1,0,0,0,1 @ F,0,0,1,0,0,0,1 @ F,0,0,1,0,7.99978,0,1 @ F,0,0,1,0,7.9997726,0,1 @ F,0,0,1,0,0,0,1 @ F,0,0,1,0,2.0877368,0,1 @ F,0,0,1,0,0,0,1 @ F,0,0,1,0,1.9998433,0,1 @ F,0,0,1,0,0,0,1 @ F,0,0,1,0,0,0,1 @ F,0,0,1,0,0,0,1 @ F,0,0,1,0,0,0,1 @ F,0,0,1,0,0,0,1 @ F,0,0,1,0,0,0,1 @ F,0,0,1,0,0,0,1 @ F,0,0,1,0,0,0,1 @ F,0,0,1,0,0,0,1 @ F,0,0,1,0,0,0,1 @ F,0,0,1,0,0,0,1 @ F,0,0,1,0,0,0,1 @ F,0,0,1,0,0,0,1 @ F,0,0,1,0,0,0,1 @ F,0,0,1,0,0,0,1 @ F,0,0,1,0,0,0,1 @ F,0,0,1,0,0,0,1 @ F,0,0,1,0,2.8068942,0,1 @ F,0,0,1,0,0,0,1 @ F,0,0,1,0,0,0,1"
       radius="0"
       unit="px"
       method="auto"
       mode="F"
       chamfer_steps="1"
       flexible="false"
       use_knot_distance="true"
       apply_no_radius="true"
       apply_with_radius="true"
       only_selected="false"
       hide_knots="false" />
    <inkscape:path-effect
       effect="fillet_chamfer"
       id="path-effect9"
       is_visible="true"
       lpeversion="1"
       nodesatellites_param="F,0,0,1,0,0,0,1 @ F,0,0,1,0,0,0,1 @ F,0,0,1,0,0,0,1 @ F,0,0,1,0,0,0,1 @ F,0,0,1,0,0,0,1 @ F,0,0,1,0,3.999743,0,1 @ F,0,0,1,0,0,0,1 @ F,0,0,1,0,0,0,1 @ F,0,0,1,0,1.0001235,0,1 @ F,0,0,1,0,1.0001235,0,1 @ F,0,0,1,0,0,0,1 @ F,0,0,1,0,0,0,1 @ F,0,0,1,0,1.0160251,0,1 @ F,0,0,1,0,1.0001235,0,1 @ F,0,0,1,0,0,0,1 @ F,0,0,1,0,0,0,1 @ F,0,0,1,0,0,0,1 @ F,0,0,1,0,0,0,1 @ F,0,0,1,0,0,0,1"
       radius="0"
       unit="px"
       method="auto"
       mode="F"
       chamfer_steps="1"
       flexible="false"
       use_knot_distance="true"
       apply_no_radius="true"
       apply_with_radius="true"
       only_selected="false"
       hide_knots="false" />
    <inkscape:path-effect
       effect="fillet_chamfer"
       id="path-effect8"
       is_visible="true"
       lpeversion="1"
       nodesatellites_param="F,0,0,1,0,0,0,1 @ F,0,0,1,0,1.0001235,0,1 @ F,0,0,1,0,0,0,1 @ F,0,0,1,0,4.0000274,0,1 @ F,0,0,1,0,3.9998126,0,1 @ F,0,0,1,0,2.9998125,0,1 @ F,0,0,1,0,0,0,1 @ F,0,0,1,0,0.36614822,0,1 @ F,0,0,1,0,0,0,1 @ F,0,0,1,0,0,0,1 @ F,0,0,1,0,5.0000274,0,1 @ F,0,0,1,0,0,0,1 @ F,0,0,1,0,2.9999371,0,1 @ F,0,0,1,0,0,0,1"
       radius="0"
       unit="px"
       method="auto"
       mode="F"
       chamfer_steps="1"
       flexible="false"
       use_knot_distance="true"
       apply_no_radius="true"
       apply_with_radius="true"
       only_selected="false"
       hide_knots="false" />
    <inkscape:path-effect
       effect="fillet_chamfer"
       id="path-effect4"
       is_visible="true"
       lpeversion="1"
       nodesatellites_param="F,0,0,1,0,0,0,1 @ F,0,0,1,0,0,0,1 @ F,0,0,1,0,1.6313886,0,1 @ F,0,0,1,0,1.6313886,0,1 @ F,0,0,1,0,0,0,1 @ F,0,0,1,0,4.9382405,0,1 @ F,0,0,1,0,0,0,1 @ F,0,0,1,0,0,0,1 @ F,0,0,1,0,0,0,1 @ F,0,0,1,0,0,0,1 @ F,0,0,1,0,0,0,1 @ F,0,0,1,0,0,0,1 @ F,0,0,1,0,0,0,1 @ F,0,0,1,0,0.43681195,0,1 @ F,0,0,1,0,0.43681195,0,1 @ F,0,0,1,0,1.0001235,0,1 @ F,0,0,1,0,0,0,1"
       radius="0"
       unit="px"
       method="auto"
       mode="F"
       chamfer_steps="1"
       flexible="false"
       use_knot_distance="true"
       apply_no_radius="true"
       apply_with_radius="true"
       only_selected="false"
       hide_knots="false" />
    <inkscape:path-effect
       effect="fillet_chamfer"
       id="path-effect8-7"
       is_visible="true"
       lpeversion="1"
       nodesatellites_param="F,0,0,1,0,0,0,1 @ F,0,0,1,0,1.0001235,0,1 @ F,0,0,1,0,0,0,1 @ F,0,0,1,0,4.0000274,0,1 @ F,0,0,1,0,3.9998126,0,1 @ F,0,0,1,0,2.9998125,0,1 @ F,0,0,1,0,0,0,1 @ F,0,0,1,0,0.36614822,0,1 @ F,0,0,1,0,0,0,1 @ F,0,0,1,0,0,0,1 @ F,0,0,1,0,5.0000274,0,1 @ F,0,0,1,0,0,0,1 @ F,0,0,1,0,2.9999371,0,1 @ F,0,0,1,0,0,0,1"
       radius="0"
       unit="px"
       method="auto"
       mode="F"
       chamfer_steps="1"
       flexible="false"
       use_knot_distance="true"
       apply_no_radius="true"
       apply_with_radius="true"
       only_selected="false"
       hide_knots="false" />
  </defs>
  <g
     inkscape:label="Layer 1"
     inkscape:groupmode="layer"
     id="layer1"
     transform="translate(-70.000001,-100)">
    <path
       style="opacity:1;fill:none;stroke:#b3b3b3;stroke-width:0.2;stroke-dasharray:none;stroke-opacity:1"
       d="M 137,195 V 100"
       id="path1" />
    <path
       style="fill:none;stroke:#b3b3b3;stroke-width:0.2;stroke-dasharray:none;stroke-opacity:1"
       d="M 130,195 V 100"
       id="path14" />
    <path
       style="fill:none;stroke:#b3b3b3;stroke-width:0.2;stroke-dasharray:none;stroke-opacity:1"
       d="M 140,195 V 100"
       id="path15" />
    <path
       style="fill:none;stroke:#b3b3b3;stroke-width:0.2;stroke-dasharray:none;stroke-opacity:1"
       d="M 132,195.00001 V 100"
       id="path1-3" />
    <path
       style="fill:none;stroke:#b3b3b3;stroke-width:0.2;stroke-dasharray:none;stroke-opacity:1"
       d="M 150,195 V 100"
       id="path1-2" />
    <path
       style="fill:none;stroke:#b3b3b3;stroke-width:0.2;stroke-dasharray:none;stroke-opacity:1"
       d="M 121.00807,195 V 99.93382"
       id="path1-2-3" />
    <path
       style="fill:none;stroke:#b3b3b3;stroke-width:0.2;stroke-dasharray:none;stroke-opacity:1"
       d="M 110.00807,195 V 99.93382"
       id="path1-2-3-3" />
    <path
       style="fill:none;stroke:#b3b3b3;stroke-width:0.2;stroke-dasharray:none;stroke-opacity:1"
       d="M 107.02815,195 V 99.93382"
       id="path1-2-3-3-7" />
    <path
       style="fill:none;stroke:#b3b3b3;stroke-width:0.2;stroke-dasharray:none;stroke-opacity:1"
       d="M 79.322657,195 V 99.93382"
       id="path1-2-3-3-7-6" />
    <path
       style="fill:none;stroke:#b3b3b3;stroke-width:0.2;stroke-dasharray:none;stroke-opacity:1"
       d="M 89.258074,195 V 99.933831"
       id="path1-2-3-3-7-6-7" />
    <path
       style="fill:none;stroke:#b3b3b3;stroke-width:0.18862;stroke-dasharray:none;stroke-opacity:1"
       d="M 155.00001,130 H 70.503561"
       id="path1-5" />
    <path
       style="fill:none;stroke:#b3b3b3;stroke-width:0.18862;stroke-dasharray:none;stroke-opacity:1"
       d="M 154.55531,135.00012 H 70.058864"
       id="path14-4" />
    <path
       style="fill:none;stroke:#b3b3b3;stroke-width:0.18862;stroke-dasharray:none;stroke-opacity:1"
       d="M 154.55531,125.00012 H 70.058864"
       id="path15-7" />
    <path
       style="fill:none;stroke:#b3b3b3;stroke-width:0.18862;stroke-dasharray:none;stroke-opacity:1"
       d="M 154.55531,115.00012 H 70.058864"
       id="path1-2-4" />
    <path
       style="fill:none;stroke:#b3b3b3;stroke-width:0.18862;stroke-dasharray:none;stroke-opacity:1"
       d="M 154.58472,140 H 70.02941"
       id="path1-2-3-30" />
    <path
       style="fill:none;stroke:#b3b3b3;stroke-width:0.18862;stroke-dasharray:none;stroke-opacity:1"
       d="M 154.55531,154.99205 H 70.000001"
       id="path1-2-3-3-78" />
    <path
       style="fill:none;stroke:#b3b3b3;stroke-width:0.18862;stroke-dasharray:none;stroke-opacity:1"
       d="M 154.58472,158.47083 H 70.02941"
       id="path1-2-3-3-7-68" />
    <path
       style="fill:none;stroke:#b3b3b3;stroke-width:0.18862;stroke-dasharray:none;stroke-opacity:1"
       d="M 154.55531,185.67746 H 70.000001"
       id="path1-2-3-3-7-6-8" />
    <path
       style="fill:none;stroke:#b3b3b3;stroke-width:0.18862;stroke-dasharray:none;stroke-opacity:1"
       d="M 154.58472,178 H 70.029415"
       id="path1-2-3-3-7-6-7-4" />
    <path
       id="rect1"
       style="fill:none;stroke:#000000;stroke-width:0.4;stroke-dasharray:none"
       d="m 132.00014,110 v 15.00012 0.36845 c -10e-5,0.90099 0.40914,2.24227 1.02474,2.89905 0.40536,0.43246 0.90462,0.89102 1.44798,1.22783 0.75503,0.46802 2.25747,0.50439 3.15846,0.50436 h 2.40502 c 0.84439,0.003 2.95175,0.002 5.04776,-5.1e-4 2.72727,-0.004 4.93457,-2.22485 4.92993,-4.95216 l -0.014,-8.04705 c -0.002,-1.10799 -0.89239,-1.99988 -2.00039,-1.99988 h -0.99994 -4.99969 c -1.108,0 -1.99988,0.89189 -1.99988,1.99988 v 4.99969 c 0,1.108 0.89188,2.0004 1.99988,2.0004 h 2.56315 a 0.43686001,0.43686001 0 0 1 0.43666,0.43666 v 0.1261 a 0.43677045,0.43677045 0 0 1 -0.43666,0.43718 h -6.56291 a 1.0001085,1.0001085 0 0 1 -1.00046,-0.99994 V 110 Z m 12.99972,7.90856 a 1.5000017,1.4999977 0 0 1 1.50017,1.50017 1.5000017,1.4999977 0 0 1 -1.50017,1.49965 1.5000017,1.4999977 0 0 1 -1.49965,-1.49965 1.5000017,1.4999977 0 0 1 1.49965,-1.50017 z" />
    <ellipse
       style="fill:none;stroke-width:0.501479;stroke:#000000"
       id="path4-1-0"
       cx="104.99371"
       cy="177.76065"
       rx="1.8953611"
       ry="1.8953562" />
    <ellipse
       style="fill:none;stroke-width:0.4;stroke:#000000;stroke-dasharray:none"
       id="path4-1-0-3"
       cx="122.10464"
       cy="117"
       rx="1.8953611"
       ry="1.8953562" />
    <path
       id="rect4"
       style="fill:none;stroke-width:0.4;stroke:#000000;stroke-dasharray:none"
       d="m 111.99968,117.99923 a 3.9994509,3.9994509 0 0 0 -3.99975,3.99975 v 3.08819 a 3.0003077,3.0003077 0 0 0 2.99982,3.00033 l 3.05821,5.2e-4 v 0.5457 a 0.36609983,0.36609983 0 0 1 -0.36587,0.36587 l -5.69216,-0.001 v 4.18941 l 6.05854,5.1e-4 a 4.999373,4.999373 0 0 0 4.9997,-4.99969 v -0.18914 h 5.94175 a 2.9999371,2.9999371 0 0 0 2.99982,-2.99982 v -6.8833 h -4.99969 v 3.88349 a 1.0001235,1.0001235 0 0 1 -0.99994,0.99994 h -2.94194 v -0.99994 a 4.0002211,4.0002211 0 0 0 -3.99976,-4.00027 z m 1.50017,3.55895 a 1.5000017,1.4999977 0 0 1 1.50017,1.50017 1.5000017,1.4999977 0 0 1 -1.50017,1.49965 1.5000017,1.4999977 0 0 1 -1.49965,-1.49965 1.5000017,1.4999977 0 0 1 1.49965,-1.50017 z"
       transform="translate(2.0000029,1.9417666)" />
    <path
       id="rect4-5"
       style="fill:none;stroke:#000000;stroke-width:0.4;stroke-dasharray:none"
       d="m 113.94152,139.91173 c -2.20887,-1.7e-4 -3.99964,1.79037 -3.99976,3.99924 v 3.08818 c -2e-5,1.65685 1.34297,3.00007 2.99982,3.00034 L 116.0003,150 v 0.54571 c 1.5e-4,0.20241 -0.16397,0.36653 -0.36638,0.36638 l -5.69216,-0.001 v 4.18889 l 6.05854,0.001 c 2.76133,1.8e-4 4.99988,-2.23836 4.9997,-4.99969 v -5.18883 -0.99994 c 3.1e-4,-2.2093 -1.79046,-4.00054 -3.99976,-4.00079 z m 1.50016,3.55896 c 0.82836,-9e-5 1.49998,0.67129 1.50017,1.49965 9e-5,0.82855 -0.67161,1.50025 -1.50017,1.50016 -0.82835,-1.9e-4 -1.49974,-0.67181 -1.49965,-1.50016 1.9e-4,-0.82815 0.6715,-1.49946 1.49965,-1.49965 z"
       sodipodi:nodetypes="ccssccccccsccccccccc" />
    <path
       id="rect2"
       style="fill:none;stroke-width:0.4;stroke:#000000;stroke-dasharray:none"
       d="m 75.078668,120 v 5.50728 5.50728 l 2.75e-4,0.004 a 8.5646872,8.5646872 43.046767 0 0 8.544788,7.98119 h 0.03501 a 9.2958598,9.2958598 139.28558 0 0 9.19204,-7.91043 l 0.164215,-1.08953 h 1.897033 a 3.3785186,3.3785186 148.28624 0 0 3.021643,-1.86721 L 98.000002,128 l 0.105623,0.21119 A 3.2361719,3.2361719 31.714644 0 0 101,129.99982 h 2.00043 c 2.21315,8e-5 4.01119,-1.78665 4.02508,-3.99976 l 0.0377,-6.00015 h -4.06332 v 4.00027 c -10e-5,0.55221 -0.44772,0.99983 -0.99993,0.99994 H 101.015 c -0.55221,-10e-5 -0.99984,-0.44773 -0.99994,-0.99994 v -3.00033 h -4.015255 v 2.98431 c -3.6e-5,0.56108 -0.454875,1.01592 -1.015959,1.01596 h -0.968933 c -0.552209,-10e-5 -0.999838,-0.44773 -0.999939,-0.99994 v -4.00027 H 89.000232 V 129 c -0.03391,2.99013 -0.928585,3.88507 -2.592314,4.89596 -1.324556,0.80481 -3.54937,0.90807 -4.878127,0.11087 -1.261046,-0.75657 -2.134653,-1.83054 -2.120658,-4.99227 V 120 Z"
       inkscape:path-effect="#path-effect10"
       inkscape:original-d="m 75.078668,120 v 5.50728 5.50728 l 0.545283,7.98522 h 16.034565 l 1.356482,-8.99996 h 3.98477 L 98.000002,128 l 1.000157,1.99982 h 4.000271 c 2.21315,8e-5 4.01119,-1.78665 4.02508,-3.99976 l 0.0377,-6.00015 h -4.06332 v 4.00027 c -10e-5,0.55221 -0.44772,0.99983 -0.99993,0.99994 H 101.015 c -0.55221,-10e-5 -0.99984,-0.44773 -0.99994,-0.99994 v -3.00033 h -4.015255 v 2.98431 c -3.6e-5,0.56108 -0.454875,1.01592 -1.015959,1.01596 h -0.968933 c -0.552209,-10e-5 -0.999838,-0.44773 -0.999939,-0.99994 v -4.00027 H 89.000232 V 129 c -0.04772,4.20733 -1.799615,4.26649 -5.000231,6.33728 -2.429731,-1.54254 -4.612928,-1.3391 -4.590868,-6.32272 V 120 Z"
       sodipodi:nodetypes="cccccccccccccccccccccccccccccc" />
    <path
       id="rect3"
       style="fill:none;stroke-width:0.4;stroke:#000000;stroke-dasharray:none"
       d="m 132.06411,140.3134 -0.0346,14.8662 a 4.3182593,4.3182593 45.551894 0 0 4.24511,4.32769 l 8.0893,0.13702 a 3.587922,3.587922 161.6276 0 0 2.25563,-0.74914 4.0249257,4.0249257 93.765802 0 0 0.3885,-5.90249 l -0.047,-0.0516 -2.94976,-2.54714 a 0.54043012,0.54043012 88.929094 0 1 -0.015,-0.80459 L 150,144 l -3,-3.48995 -8.00445,7.84145 a 2.2318814,2.2318814 90.717648 0 0 -0.0395,3.14903 l 3.34723,3.44755 a 0.42292338,0.42292338 112.92368 0 1 -0.30345,0.71753 l -4.37683,-1.1e-4 a 0.99986944,0.99986944 45.000719 0 1 -0.99984,-0.99987 V 140.3134 Z"
       sodipodi:nodetypes="ccccccccccccc"
       inkscape:path-effect="#path-effect11"
       inkscape:original-d="m 132.06411,140.3134 -0.0445,19.12182 13.60362,0.23042 4.37694,-3.38474 -3.03909,-3.33985 L 143.55513,150 150,144 l -3,-3.48995 -9.59166,9.39633 5.59166,5.75926 -6.37679,-1.6e-4 V 140.3134 Z"
       transform="translate(-16.623209,18.334365)" />
    <path
       style="fill:none;stroke-width:0.43565572;stroke:#000000;stroke-dasharray:none"
       d="m 125.79798,162.79385 c -1.69475,-0.71344 -2.9672,-1.43126 -4.04048,-1.90533 -1.08424,-0.47892 -3.04187,-0.55234 -4.23592,-0.55234 h -0.80809 a 3.9258189,3.9258189 150.9904 0 0 -3.32998,1.84657 L 111,166 l 4.33476,1.92552 c 0,0 0.33605,-0.5381 0.94895,-1.50845 0.13705,-0.21698 0.27686,-0.43519 0.41178,-0.64387 0.49621,-0.76752 1.59699,-1.10448 2.44437,-0.76195 l 3.057,1.2357 c 0.42623,0.17229 0.41205,0.41043 -0.0242,0.55537 -1.79226,0.59548 -6.16719,2.32227 -8.46961,5.60221 -4.66411,6.64431 -2.89194,13.90225 3.16203,16.88188 3.99547,1.96649 12.42757,0.31115 12.42757,0.31115 l -1.05402,-4.61767 c -7.47415,2.09791 -11.12629,0.25056 -12.57013,-2.21354 -0.29875,-0.50984 -0.61958,-1.42957 -0.66063,-2.01818 -0.15179,-2.17642 1.23741,-4.82493 3.08217,-6.65905 0.86091,-0.85594 2.55411,-1.89904 3.64734,-2.43186 4.99234,-2.4332 10.19682,-2.84922 10.19682,-2.84922 L 132,164.5 l -2.07066,-0.46723 c -1.16477,-0.26283 -3.0311,-0.77576 -4.13136,-1.23892 z"
       id="path7"
       sodipodi:nodetypes="cscccsccsscczsccc"
       inkscape:path-effect="#path-effect7"
       inkscape:original-d="m 127.82033,163.55688 c -4.21605,-1.4068 -6.26259,-3.2207 -8.13672,-3.2207 h -5.1471 L 111,166 l 4.33476,1.92552 c 0,0 0.33605,-0.5381 0.94895,-1.50845 0.63163,-1 1.32183,-2.02603 1.32183,-2.02603 l 5.36307,2.16787 c 0,0 -6.32407,1.65533 -9.26553,5.84562 -4.66411,6.64431 -2.89194,13.90225 3.16203,16.88188 3.99547,1.96649 12.42757,0.31115 12.42757,0.31115 l -1.05402,-4.61767 c -8.43209,2.36679 -11.99968,-0.28778 -13.01987,-3.18438 -1.02018,-2.8966 1.63793,-7.26101 4.58778,-9.07952 5.47681,-3.37631 12.12766,-3.90795 12.12766,-3.90795 L 132,164.5 Z"
       transform="matrix(0.94875625,0,0,0.88854309,-12.841366,18.46686)" />
    <ellipse
       style="fill:none;stroke:#000000;stroke-width:0.4;stroke-dasharray:none"
       id="path4-1-0-3-1"
       cx="145.10464"
       cy="112.3662"
       rx="1.8953611"
       ry="1.8953562" />
  </g>
</svg>
