<?xml version="1.0" encoding="UTF-8" standalone="no"?>
<!-- Created with Inkscape (http://www.inkscape.org/) -->

<svg
   width="77.544624mm"
   height="71.466957mm"
   viewBox="0 0 77.544627 71.466959"
   version="1.1"
   id="svg1"
   inkscape:version="1.4.1 (93de688d07, 2025-03-30)"
   sodipodi:docname="lantern-pine-logo.svg"
   xmlns:inkscape="http://www.inkscape.org/namespaces/inkscape"
   xmlns:sodipodi="http://sodipodi.sourceforge.net/DTD/sodipodi-0.dtd"
   xmlns="http://www.w3.org/2000/svg"
   xmlns:svg="http://www.w3.org/2000/svg">
  <sodipodi:namedview
     id="namedview1"
     pagecolor="#ffffff"
     bordercolor="#000000"
     borderopacity="0.25"
     inkscape:showpageshadow="2"
     inkscape:pageopacity="0.0"
     inkscape:pagecheckerboard="0"
     inkscape:deskcolor="#d1d1d1"
     inkscape:document-units="mm"
     inkscape:zoom="0.53005752"
     inkscape:cx="139.60749"
     inkscape:cy="157.53007"
     inkscape:window-width="1536"
     inkscape:window-height="804"
     inkscape:window-x="0"
     inkscape:window-y="0"
     inkscape:window-maximized="1"
     inkscape:current-layer="layer1" />
  <defs
     id="defs1" />
  <g
     inkscape:label="Layer 1"
     inkscape:groupmode="layer"
     id="layer1"
     transform="translate(-67.828418,-106.8281)">
    <path
       id="path6-9-0"
       style="fill:#000000;stroke:none;stroke-width:5.99282;stroke-dasharray:none"
       d="m 88.988883,106.8281 a 38.772237,39.757394 0 0 0 -21.160465,35.41851 38.772237,39.757394 0 0 0 22.419303,36.04845 h 32.705499 a 38.772237,39.757394 0 0 0 22.41982,-36.04845 38.772237,39.757394 0 0 0 -21.15995,-35.41851 h -17.61236 c 3.57911,0 6.73648,0.99662 9.22372,3.34244 -3.32525,0.41491 -6.38395,1.06163 -9.15551,1.83606 -3.2436,-0.86342 -6.46998,-1.40281 -9.477456,-1.65726 2.51508,-2.4742 5.740316,-3.52124 9.409246,-3.52124 z m 28.334707,5.03277 c 0.68671,0.92127 2.78122,2.51251 2.78122,2.51251 0,0 -0.22015,2.47532 0.0785,3.48971 -3.12803,-2.03934 -6.5769,-3.62915 -10.08879,-4.82089 2.24468,-0.50536 4.657,-0.91532 7.22902,-1.18133 z m -21.622455,0.24236 c 2.34072,0.1407 4.859855,0.47065 7.437275,1.00511 -4.229723,1.45994 -7.616924,3.14757 -10.061404,4.56045 0.33998,-1.12226 -0.754476,-3.14917 -0.754476,-3.14917 0,0 2.849655,-1.67472 3.378605,-2.41639 z m 10.889255,1.83814 c 5.01941,1.38619 10.05683,3.56134 14.25288,6.64197 0.0622,0.31685 0.12126,0.63996 0.17673,0.96945 -3.04002,-0.0318 -8.18071,0.27055 -14.07924,2.09909 -6.36482,-1.97288 -11.848004,-2.16953 -14.761374,-2.08617 0.0783,-0.46616 0.163452,-0.91971 0.255282,-1.36064 2.76748,-1.75631 7.581372,-4.36448 14.155722,-6.2637 z m 14.69523,9.45368 c 0.13498,1.1094 2.1823,4.67775 2.1823,4.67775 0,0 -1.58452,0.68715 -1.81385,3.33882 -3.88862,-3.09248 -7.89362,-5.23323 -11.69334,-6.7076 4.81705,-1.19726 8.89472,-1.36109 11.32489,-1.30897 z m -29.37185,0.0217 c 2.29991,-0.0963 6.706586,-0.0319 12.00909,1.28622 -4.018354,1.55913 -8.267084,3.86427 -12.364624,7.25176 -0.0134,-2.11052 -1.646411,-3.9579 -1.646411,-3.9579 0,0 1.755075,-2.54157 2.001945,-4.58008 z m 15.02751,2.15077 c 4.35265,1.41481 9.11305,3.71124 13.70872,7.40368 -1.90904,-0.0173 -4.49611,0.13152 -7.51169,0.74363 -1.90716,0.38718 -3.99274,0.95953 -6.19703,1.79162 -2.20428,-0.83209 -4.2899,-1.40444 -6.19704,-1.79162 -3.015572,-0.6122 -5.602131,-0.76103 -7.511171,-0.74363 4.59571,-3.69244 9.355591,-5.98887 13.708211,-7.40368 z m 14.59187,9.09919 c -0.10086,1.76038 1.30793,5.32732 1.30793,5.32732 0,0 -2.09888,2.47354 -2.2965,3.70055 -3.8474,-3.30665 -7.68355,-5.62143 -11.2758,-7.22902 1.47758,-0.47963 2.88611,-0.83876 4.2044,-1.10639 3.43644,-0.69763 6.23726,-0.76913 8.05997,-0.69246 z m -26.293485,0.0227 c 1.477326,0.0799 3.2217,0.27427 5.169705,0.66973 1.31829,0.26763 2.72633,0.62676 4.20388,1.10639 -3.77757,1.69055 -7.824667,4.16256 -11.871107,7.74837 -0.21506,-1.28692 -2.341459,-3.88504 -2.341459,-3.88504 0,0 1.37705,-3.76554 1.26969,-5.62394 0.881385,-0.061 2.091964,-0.0954 3.569291,-0.0155 z m 11.701615,2.6138 c 3.85107,1.52242 8.0666,3.88028 12.32379,7.50652 -3.14762,0.21837 -7.60853,0.90335 -12.32379,2.83031 -4.71526,-1.92698 -9.176686,-2.61194 -12.324316,-2.83031 4.25718,-3.62624 8.473256,-5.9841 12.324316,-7.50652 z m -13.835852,8.9364 c 2.72876,0.0808 7.111282,0.527 11.894362,2.26033 -3.25974,1.55998 -6.57005,3.75054 -9.59321,6.82077 -0.40871,-1.25525 -2.917652,-2.12648 -2.917652,-2.12648 0,0 0.95429,-5.18858 0.6165,-6.95462 z m 26.985952,0.0269 c -0.33364,1.74132 0.63303,5.99395 0.63303,5.99395 0,0 -2.41362,1.43665 -2.76469,2.54765 -2.88178,-2.80338 -6.00226,-4.83644 -9.07748,-6.30814 4.401,-1.59495 8.46306,-2.10008 11.20914,-2.23346 z m -13.15062,3.00137 c 3.51707,1.51353 7.15493,3.76349 10.44019,7.09776 -3.19201,0.43335 -6.92951,1.37914 -10.68875,3.30161 -3.58693,-1.90383 -7.134989,-2.85891 -10.186979,-3.30574 3.28407,-3.33203 6.920259,-5.58072 10.435539,-7.09363 z m -10.725444,8.36952 c 2.71926,0.38606 5.864044,1.19899 9.076444,2.79207 -1.91768,1.10884 -3.82408,2.48733 -5.64978,4.19716 -0.59864,-0.90387 -2.603459,-2.1177 -2.603459,-2.1177 0,0 -0.290665,-3.45035 -0.823205,-4.87153 z m 20.726384,0.12092 c -0.51711,1.36946 -0.76946,4.73356 -0.76946,4.73356 0,0 -2.0176,1.23869 -2.62362,2.15181 -1.77362,-1.70252 -3.61521,-3.07853 -5.46219,-4.18838 3.10422,-1.48109 6.16288,-2.28373 8.85527,-2.69699 z m -10.25571,3.41116 c 2.0494,1.16025 4.10532,2.65626 6.07612,4.57853 -2.68717,1.77998 -5.1156,4.72271 -6.16138,4.72271 -1.04577,0 -3.22239,-2.81954 -6.17534,-4.74183 2.0179,-1.91684 4.13873,-3.40574 6.2606,-4.55941 z" />
  </g>
</svg>
