<?xml version="1.0" encoding="UTF-8" standalone="no"?>
<!-- Created with Inkscape (http://www.inkscape.org/) -->

<svg
   width="210mm"
   height="297mm"
   viewBox="0 0 210 297"
   version="1.1"
   id="svg1"
   xml:space="preserve"
   sodipodi:docname="pine-lanterns.svg"
   inkscape:version="1.4.1 (93de688d07, 2025-03-30)"
   xmlns:inkscape="http://www.inkscape.org/namespaces/inkscape"
   xmlns:sodipodi="http://sodipodi.sourceforge.net/DTD/sodipodi-0.dtd"
   xmlns="http://www.w3.org/2000/svg"
   xmlns:svg="http://www.w3.org/2000/svg"><sodipodi:namedview
     id="namedview1"
     pagecolor="#ffffff"
     bordercolor="#000000"
     borderopacity="0.25"
     inkscape:showpageshadow="2"
     inkscape:pageopacity="0.0"
     inkscape:pagecheckerboard="0"
     inkscape:deskcolor="#d1d1d1"
     inkscape:document-units="mm"
     showguides="true"
     inkscape:zoom="0.74961451"
     inkscape:cx="557.61995"
     inkscape:cy="386.1985"
     inkscape:window-width="1536"
     inkscape:window-height="804"
     inkscape:window-x="0"
     inkscape:window-y="0"
     inkscape:window-maximized="1"
     inkscape:current-layer="layer1"><inkscape:page
       x="0"
       y="0"
       width="210"
       height="297"
       id="page2"
       margin="0"
       bleed="0" /><inkscape:page
       x="228.96635"
       y="49.589951"
       width="56.720005"
       height="56.720005"
       id="page3"
       margin="0"
       bleed="0" /></sodipodi:namedview><defs
     id="defs1" /><g
     inkscape:label="Layer 1"
     inkscape:groupmode="layer"
     id="layer1"><path
       sodipodi:type="star"
       style="fill:#000000;stroke:none;stroke-width:0.799999;stroke-dasharray:none"
       id="path11"
       inkscape:flatsided="false"
       sodipodi:sides="3"
       sodipodi:cx="142.2605"
       sodipodi:cy="138.26723"
       sodipodi:r1="19.087555"
       sodipodi:r2="9.5437775"
       sodipodi:arg1="0.52359878"
       sodipodi:arg2="1.5707963"
       inkscape:rounded="0"
       inkscape:randomized="0"
       d="m 158.79081,147.811 -16.53031,0 -16.53031,0 8.26515,-14.31566 8.26516,-14.31567 8.26515,14.31567 z"
       inkscape:transform-center-y="1.9784887e-05"
       transform="matrix(-1.4671022,-0.82429398,0.84703185,-1.427719,204.69036,448.67804)"
       inkscape:transform-center-x="-8.0838905" /><path
       id="rect9"
       style="fill:#000000;stroke:none;stroke-width:0.908366;stroke-dasharray:none"
       d="M 167.56342 66.426953 L 167.56342 74.798018 L 151.85068 74.798018 L 149.8539 74.798018 L 147.85712 74.798018 L 147.85712 126.17834 L 151.85068 126.17834 L 151.85068 75.593835 L 167.56342 75.593835 L 167.56342 76.019649 C 168.18555 76.019649 169.48038 77.697096 171.23709 78.840666 C 170.0527 79.965746 168.8088 80.842836 167.56342 81.525256 L 167.56342 82.475069 C 169.67878 83.588589 171.76901 84.149892 173.56925 84.413452 C 171.67842 86.331912 169.59155 87.646453 167.56342 88.544983 L 167.56342 89.683415 C 170.29345 90.767635 172.8653 91.158604 174.6927 91.285384 C 172.23453 93.379224 169.79931 94.762469 167.56342 95.670129 L 167.56342 96.895378 C 168.80002 97.349828 169.97147 97.667585 171.04744 97.886015 C 172.84141 98.250175 174.38021 98.338665 175.5159 98.328365 C 172.85304 100.46784 170.09748 101.81902 167.56342 102.66557 L 167.56342 103.93371 C 171.26363 105.04968 174.44047 105.16218 176.14274 105.11348 C 176.09614 105.3908 176.04541 105.66042 175.99081 105.92273 C 174.34443 106.96756 171.4807 108.51927 167.56962 109.64912 C 167.56762 109.64812 167.56542 109.64763 167.56342 109.64705 L 167.56342 110.81029 C 169.47944 111.3177 171.38432 111.63564 173.16101 111.78594 C 171.66479 113.25784 169.74606 113.8809 167.56342 113.8809 L 167.56342 119.18807 L 168.57731 119.18807 L 185.57162 119.18807 L 199.02403 119.18807 L 199.02403 116.25234 L 185.57162 116.25234 L 185.57162 66.426953 L 167.56342 66.426953 z M 167.40632 76.123002 C 166.64997 76.623152 165.47767 77.820544 164.2246 78.604504 C 165.2524 79.660494 166.32658 80.512285 167.40632 81.198145 L 167.40632 76.123002 z M 163.73988 79.24891 C 163.36538 79.78258 162.14618 80.48811 162.14618 80.48811 C 162.14618 80.48811 161.94464 82.485137 161.61597 83.291557 C 163.22351 83.087417 165.05483 82.657603 166.92366 81.824463 C 165.84242 81.135883 164.76841 80.28875 163.73988 79.24891 z M 171.70321 79.49644 C 172.05934 80.03415 173.25196 80.755794 173.25196 80.755794 C 173.25196 80.755794 173.42504 82.808865 173.74185 83.654325 C 172.12416 83.424655 170.25323 82.941165 168.34218 81.993445 C 169.483 81.333795 170.6171 80.51362 171.70321 79.49644 z M 167.40632 82.470418 C 165.25579 83.448538 163.14403 83.914585 161.33279 84.112695 C 163.22711 86.137965 165.34619 87.529358 167.40632 88.483488 L 167.40632 82.470418 z M 160.96485 85.029952 C 160.7389 85.685242 159.28123 86.502214 159.28123 86.502214 C 159.28123 86.502214 159.79027 89.046272 159.56494 90.076672 C 161.20009 90.039772 163.62389 89.802204 166.26582 88.921704 C 164.45974 87.998964 162.63528 86.741682 160.96485 85.029952 z M 174.22296 85.032536 C 174.4661 85.779296 175.95825 86.297575 175.95825 86.297575 C 175.95825 86.297575 175.39092 89.38417 175.59187 90.43479 C 173.96853 90.38668 171.36126 90.121329 168.51581 89.090169 C 170.45502 88.162139 172.42448 86.859016 174.22296 85.032536 z M 167.40632 89.463273 C 164.57239 90.536341 161.9089 90.874488 160.03364 90.955688 C 162.50933 93.178012 164.97995 94.645783 167.24664 95.610701 C 167.29974 95.591301 167.35294 95.57169 167.40632 95.55179 L 167.40632 89.463273 z M 159.2554 91.599577 C 159.11891 92.326217 157.83274 93.764303 157.83274 93.764303 C 157.83274 93.764303 158.61551 95.907398 158.52831 96.952738 C 159.61108 97.026538 161.27773 97.027734 163.33215 96.665934 C 164.12027 96.527154 164.96371 96.335079 165.84983 96.072689 C 163.73838 95.061109 161.49233 93.625507 159.2554 91.599577 z M 175.80787 91.639884 C 175.93581 92.405484 177.20055 93.950854 177.20055 93.950854 C 177.20055 93.950854 176.38166 96.191343 176.44556 97.296903 C 175.39689 97.369503 173.56466 97.37829 171.24691 96.90778 C 170.46266 96.74856 169.62477 96.534762 168.74577 96.249422 C 170.99305 95.243712 173.40064 93.773084 175.80787 91.639884 z M 167.21873 96.678853 C 165.89499 97.139633 164.64595 97.44805 163.50578 97.64882 C 161.703 97.965904 160.16255 98.014694 159.0275 97.974898 C 161.70345 100.2418 164.49865 101.68094 167.06525 102.5896 C 167.17851 102.556 167.29213 102.5218 167.40632 102.48625 L 167.40632 96.754301 C 167.34392 96.729501 167.2814 96.704353 167.21873 96.678853 z M 158.40583 98.886987 C 158.22832 100.45997 157.27567 100.84449 157.27567 100.84449 C 157.27567 100.84449 158.43834 102.99799 158.50144 103.65982 C 159.94587 103.72842 162.37287 103.69433 165.25606 103.05676 C 163.01918 102.12122 160.67059 100.78619 158.40583 98.886987 z M 176.51222 98.932979 C 176.52022 100.18854 177.49149 101.28736 177.49149 101.28736 C 177.49149 101.28736 176.44773 102.79956 176.30087 104.01226 C 174.93265 104.06956 172.31106 104.03106 169.1566 103.24693 C 171.54712 102.3194 174.07459 100.9482 176.51222 98.932979 z M 167.03632 103.72907 C 163.50021 104.72532 160.43803 104.82591 158.63063 104.76001 C 158.65853 104.95681 158.68844 105.14995 158.72054 105.33931 C 161.16829 107.23623 164.1306 108.60711 167.09419 109.50908 C 167.19899 109.48178 167.30298 109.4544 167.40632 109.4264 L 167.40632 103.85154 C 167.28346 103.81184 167.1603 103.77104 167.03632 103.72907 z M 159.07091 106.9666 C 159.23325 107.57448 159.06419 109.04347 159.06419 109.04347 C 159.06475 109.04392 160.28502 110.02198 160.67908 110.58033 C 162.21276 110.46188 163.6534 110.2555 164.99613 109.98967 C 162.92602 109.22665 160.90014 108.22774 159.07143 106.9666 L 159.07091 106.9666 z M 175.60892 107.43169 C 175.40667 108.09933 176.05747 109.30496 176.05747 109.30496 C 176.05747 109.30496 174.36244 110.30138 174.04777 110.74259 C 172.65527 110.65889 171.15655 110.46264 169.62324 110.1447 C 172.13951 109.27618 174.1547 108.27221 175.60892 107.43169 z M 167.01771 110.65836 C 165.35751 111.07608 163.52858 111.41386 161.54466 111.60921 C 162.98754 113.04272 164.84943 113.68401 166.97792 113.73931 C 167.1218 113.74331 167.26464 113.74441 167.40632 113.74241 L 167.40632 110.76998 C 167.27683 110.73358 167.14729 110.69648 167.01771 110.65836 z " /><circle
       style="fill:#000000;stroke:none;stroke-width:0.67103;stroke-dasharray:none"
       id="path7"
       cx="-116.82949"
       cy="20"
       r="29.383293"
       transform="scale(-1,1)" /><circle
       style="fill:#ffcc00;stroke:none;stroke-width:4.3288;stroke-dasharray:none"
       id="path6-9"
       cx="39.963577"
       cy="35.600491"
       r="28.360003" /><circle
       style="fill:#ffcc00;stroke:none;stroke-width:4.3288;stroke-dasharray:none"
       id="path6-9-7"
       cx="47.310745"
       cy="131.37675"
       r="28.360003" /><rect
       style="fill:#000000;stroke:none;stroke-width:0.390235;stroke-dasharray:none"
       id="rect6"
       width="3.4514427"
       height="4.523932"
       x="120.35846"
       y="178.13832" /><rect
       style="fill:#ffffff;stroke:none;stroke-width:0.83946;stroke-dasharray:none"
       id="rect7"
       width="40"
       height="40"
       x="96.829491"
       y="0" /><path
       id="path1-7"
       style="fill:#000000;stroke:none;stroke-width:0.388431"
       d="m 39.58428,15.498602 c 0.62213,0 1.91697,1.67745 3.67368,2.82102 -1.20045,1.14033 -2.46203,2.026166 -3.72432,2.712486 -1.21918,-0.69023 -2.44235,-1.580296 -3.61477,-2.723856 1.59859,-1.05891 3.04328,-2.80965 3.66541,-2.80965 z m -4.13308,3.46645 c 1.05513,1.012826 2.15064,1.831586 3.24941,2.491836 -1.8467,0.8811 -3.6662,1.3587 -5.26789,1.60455 0.30762,-0.81469 0.45756,-2.81601 0.45756,-2.81601 0,0 1.20041,-0.737156 1.56092,-1.280376 z m 8.27288,0.0103 c 0.35613,0.53771 1.54894,1.259716 1.54894,1.259716 0,0 0.17289,2.05271 0.4897,2.89817 -1.61769,-0.22967 -3.48863,-0.71317 -5.39968,-1.66089 1.14082,-0.65965 2.27493,-1.47982 3.36104,-2.496996 z m -4.19406,2.950206 c 2.13386,1.13259 4.24447,1.70098 6.0601,1.9668 -1.95369,1.98223 -4.11667,3.31987 -6.2079,4.2199 -2.0923,-0.9004 -4.2566,-2.23892 -6.21099,-4.22248 1.89892,-0.2578 4.12243,-0.82054 6.35879,-1.96422 z m 6.71381,2.58589 c 0.24314,0.74675 1.7357,1.26516 1.7357,1.26516 0,0 -0.56774,3.08647 -0.36679,4.13709 -1.62334,-0.0481 -4.23061,-0.31346 -7.07606,-1.34462 1.93921,-0.92803 3.90867,-2.23115 5.70715,-4.05763 z m -13.41675,0.30489 c 1.71436,1.66773 3.57074,2.87723 5.40018,3.75274 -2.61815,0.94884 -5.03468,1.24925 -6.66832,1.3286 0.19848,-1.03591 -0.37661,-3.5657 -0.37661,-3.5657 0,0 1.4359,-0.85471 1.64475,-1.51564 z m 6.55463,4.26434 c 2.8051,1.14636 5.45933,1.5537 7.33186,1.68361 -2.5326,2.15725 -5.04087,3.560186 -7.33186,4.465876 -2.29099,-0.90569 -4.79874,-2.308626 -7.33133,-4.465876 1.87251,-0.12991 4.52624,-0.53726 7.33133,-1.68361 z m 8.44704,2.03811 c 0.12794,0.76559 1.393,2.311346 1.393,2.311346 0,0 -0.81919,2.24011 -0.75532,3.34567 -1.04867,0.0726 -2.88091,0.0814 -5.19866,-0.38912 -0.78425,-0.15921 -1.62213,-0.37303 -2.50113,-0.65836 2.24728,-1.00571 4.65488,-2.476336 7.06211,-4.609536 z m -16.53956,0.30903 c 2.28882,1.967126 4.57109,3.344146 6.70811,4.300506 -0.87901,0.28533 -1.71689,0.49915 -2.50114,0.65836 -2.04432,0.41502 -3.71072,0.45747 -4.79505,0.41186 0.06,-1.04725 -0.77816,-3.16933 -0.77816,-3.16933 0,0 1.24867,-1.471446 1.36624,-2.201396 z m 8.09252,4.871016 c 1.31132,0.49501 2.55203,0.83575 3.68659,1.06608 1.79397,0.3642 3.33279,0.4527 4.46848,0.44235 -2.73399,2.19663 -5.5657,3.56272 -8.15507,4.40439 -2.58937,-0.84167 -5.42109,-2.20776 -8.15505,-4.40439 1.13569,0.0103 2.67449,-0.0782 4.46845,-0.44235 1.13457,-0.23033 2.37528,-0.57107 3.6866,-1.06608 z m 9.15139,2.11305 c 0.008,1.25555 0.97952,2.35467 0.97952,2.35467 0,0 -1.04402,1.5119 -1.19088,2.72461 -1.36822,0.0573 -3.98982,0.0188 -7.14428,-0.76533 2.39052,-0.92753 4.91801,-2.29873 7.35564,-4.31395 z m -17.90382,0.32298 c 2.31334,1.83972 4.69571,3.11335 6.95615,3.99045 -2.86565,0.71225 -5.29133,0.80977 -6.73704,0.77876 -0.0803,-0.65998 -1.29815,-2.78286 -1.29815,-2.78286 0,0 0.94241,-0.40887 1.07884,-1.98635 z m 8.75294,4.61625 c 3.78642,1.17367 7.04822,1.29086 8.78139,1.24127 -0.0466,0.27732 -0.0973,0.54694 -0.15193,0.80925 -1.64638,1.04483 -4.51012,2.59655 -8.4212,3.7264 -2.98603,-0.82465 -5.98284,-2.11852 -8.47906,-3.95119 -0.037,-0.18849 -0.0719,-0.3807 -0.1049,-0.57671 1.80851,0.0189 4.86668,-0.16122 8.3757,-1.24902 z m -7.87806,3.44372 c 1.86087,1.21321 3.91247,2.15907 6.00169,2.86804 -1.33535,0.30063 -2.77042,0.54455 -4.30051,0.7028 -0.40852,-0.54805 -1.65458,-1.49478 -1.65458,-1.49478 0,0 0.13112,-1.47261 -0.0466,-2.07606 z m 16.12563,0.11576 c -0.20225,0.66763 0.44866,1.8734 0.44866,1.8734 0,0 -1.69513,0.99629 -2.0098,1.4375 -1.3925,-0.0837 -2.89124,-0.27995 -4.42455,-0.59789 2.51627,-0.86852 4.53147,-1.87249 5.98569,-2.71301 z m -8.08582,3.36827 c 1.92961,0.51365 3.84875,0.83461 5.6379,0.98598 -1.49622,1.4719 -3.41495,2.09496 -5.59759,2.09496 -2.1292,0 -4.00735,-0.59298 -5.487,-1.98851 1.97818,-0.24683 3.7979,-0.63172 5.44669,-1.09243 z"
       sodipodi:nodetypes="zccczcccccccccccccccccccccccccccccccccsccccsccccscccscccccccccccccccccccccsccccccccsccc" /><circle
       style="fill:#ffcc00;stroke:none;stroke-width:4.3288;stroke-dasharray:none"
       id="path6-9-2"
       cx="257.32635"
       cy="77.949951"
       r="28.360003" /><path
       id="path1-7-7"
       style="fill:#000000;stroke:none;stroke-width:0.388431"
       d="m 256.94706,57.848065 c 0.62213,0 1.91697,1.67745 3.67368,2.82102 -1.20045,1.14033 -2.46203,2.026166 -3.72432,2.712486 -1.21918,-0.69023 -2.44235,-1.580296 -3.61477,-2.723856 1.59859,-1.05891 3.04328,-2.80965 3.66541,-2.80965 z m -4.13308,3.46645 c 1.05513,1.012826 2.15064,1.831586 3.24941,2.491836 -1.8467,0.8811 -3.6662,1.3587 -5.26789,1.60455 0.30762,-0.81469 0.45756,-2.81601 0.45756,-2.81601 0,0 1.20041,-0.737156 1.56092,-1.280376 z m 8.27288,0.0103 c 0.35613,0.53771 1.54894,1.259716 1.54894,1.259716 0,0 0.17289,2.05271 0.4897,2.89817 -1.61769,-0.22967 -3.48863,-0.71317 -5.39968,-1.66089 1.14082,-0.65965 2.27493,-1.47982 3.36104,-2.496996 z m -4.19406,2.950206 c 2.13386,1.13259 4.24447,1.70098 6.0601,1.9668 -1.95369,1.98223 -4.11667,3.31987 -6.2079,4.2199 -2.0923,-0.9004 -4.2566,-2.23892 -6.21099,-4.22248 1.89892,-0.2578 4.12243,-0.82054 6.35879,-1.96422 z m 6.71381,2.58589 c 0.24314,0.74675 1.7357,1.26516 1.7357,1.26516 0,0 -0.56774,3.08647 -0.36679,4.13709 -1.62334,-0.0481 -4.23061,-0.31346 -7.07606,-1.34462 1.93921,-0.92803 3.90867,-2.23115 5.70715,-4.05763 z m -13.41675,0.30489 c 1.71436,1.66773 3.57074,2.87723 5.40018,3.75274 -2.61815,0.94884 -5.03468,1.24925 -6.66832,1.3286 0.19848,-1.03591 -0.37661,-3.5657 -0.37661,-3.5657 0,0 1.4359,-0.85471 1.64475,-1.51564 z m 6.55463,4.26434 c 2.8051,1.14636 5.45933,1.5537 7.33186,1.68361 -2.5326,2.15725 -5.04087,3.560186 -7.33186,4.465876 -2.29099,-0.90569 -4.79874,-2.308626 -7.33133,-4.465876 1.87251,-0.12991 4.52624,-0.53726 7.33133,-1.68361 z m 8.44704,2.03811 c 0.12794,0.76559 1.393,2.311346 1.393,2.311346 0,0 -0.81919,2.24011 -0.75532,3.34567 -1.04867,0.0726 -2.88091,0.0814 -5.19866,-0.38912 -0.78425,-0.15921 -1.62213,-0.37303 -2.50113,-0.65836 2.24728,-1.00571 4.65488,-2.476336 7.06211,-4.609536 z m -16.53956,0.30903 c 2.28882,1.967126 4.57109,3.344146 6.70811,4.300506 -0.87901,0.28533 -1.71689,0.49915 -2.50114,0.65836 -2.04432,0.41502 -3.71072,0.45747 -4.79505,0.41186 0.06,-1.04725 -0.77816,-3.16933 -0.77816,-3.16933 0,0 1.24867,-1.471446 1.36624,-2.201396 z m 8.09252,4.871016 c 1.31132,0.49501 2.55203,0.83575 3.68659,1.06608 1.79397,0.3642 3.33279,0.4527 4.46848,0.44235 -2.73399,2.19663 -5.5657,3.56272 -8.15507,4.40439 -2.58937,-0.84167 -5.42109,-2.20776 -8.15505,-4.40439 1.13569,0.0103 2.67449,-0.0782 4.46845,-0.44235 1.13457,-0.23033 2.37528,-0.57107 3.6866,-1.06608 z m 9.15139,2.11305 c 0.008,1.25555 0.97952,2.35467 0.97952,2.35467 0,0 -1.04402,1.5119 -1.19088,2.72461 -1.36822,0.0573 -3.98982,0.0188 -7.14428,-0.76533 2.39052,-0.92753 4.91801,-2.29873 7.35564,-4.31395 z m -17.90382,0.32298 c 2.31334,1.83972 4.69571,3.11335 6.95615,3.99045 -2.86565,0.71225 -5.29133,0.80977 -6.73704,0.77876 -0.0803,-0.65998 -1.29815,-2.78286 -1.29815,-2.78286 0,0 0.94241,-0.40887 1.07884,-1.98635 z m 8.75294,4.61625 c 3.78642,1.17367 7.04822,1.29086 8.78139,1.24127 -0.0466,0.27732 -0.0973,0.54694 -0.15193,0.80925 -1.64638,1.04483 -4.51012,2.59655 -8.4212,3.7264 -2.98603,-0.82465 -5.98284,-2.11852 -8.47906,-3.95119 -0.037,-0.18849 -0.0719,-0.3807 -0.1049,-0.57671 1.80851,0.0189 4.86668,-0.16122 8.3757,-1.24902 z m -7.87806,3.44372 c 1.86087,1.21321 3.91247,2.15907 6.00169,2.86804 -1.33535,0.30063 -2.77042,0.54455 -4.30051,0.7028 -0.40852,-0.54805 -1.65458,-1.49478 -1.65458,-1.49478 0,0 0.13112,-1.47261 -0.0466,-2.07606 z m 16.12563,0.11576 c -0.20225,0.66763 0.44866,1.8734 0.44866,1.8734 0,0 -1.69513,0.99629 -2.0098,1.4375 -1.3925,-0.0837 -2.89124,-0.27995 -4.42455,-0.59789 2.51627,-0.86852 4.53147,-1.87249 5.98569,-2.71301 z m -8.08582,3.36827 c 1.92961,0.51365 3.84875,0.83461 5.6379,0.98598 -1.49622,1.4719 -3.41495,2.09496 -5.59759,2.09496 -2.1292,0 -4.00735,-0.59298 -5.487,-1.98851 1.97818,-0.24683 3.7979,-0.63172 5.44669,-1.09243 z"
       sodipodi:nodetypes="zccczcccccccccccccccccccccccccccccccccsccccsccccscccscccccccccccccccccccccsccccccccsccc" /><path
       id="path6-9-3"
       style="fill:#000000;stroke:none;stroke-width:3.79005;stroke-dasharray:none"
       d="M 185.16996,57.918817 A 24.83041,24.83041 0 0 0 210,33.088322 24.83041,24.83041 0 0 0 185.18552,8.2582838 c 2.12246,0.00296 3.99463,0.5964718 5.47051,1.9884032 -1.97817,0.246868 -3.79789,0.631804 -5.44668,1.092546 -1.92962,-0.513612 -3.84876,-0.834544 -5.63791,-0.985879 1.20014,-1.1806839 2.67566,-1.8079827 4.33768,-2.0128852 a 24.83041,24.83041 0 0 0 -23.56966,24.7488252 24.83041,24.83041 0 0 0 24.8305,24.829523 z m -2.4e-4,-11.79928 c -0.62213,1.2e-5 -1.917,-1.677408 -3.67373,-2.820944 1.20043,-1.140354 2.462,-2.026224 3.72428,-2.712569 1.21919,0.690206 2.44237,1.580257 3.61481,2.723794 -1.59857,1.058942 -3.04323,2.809707 -3.66536,2.809719 z m 4.13302,-3.466536 c -1.05515,-1.012805 -2.15068,-1.831545 -3.24946,-2.491773 1.84668,-0.881136 3.66618,-1.358776 5.26787,-1.604657 -0.30761,0.814696 -0.45729,2.815858 -0.45729,2.815858 0,0 -1.20062,0.737345 -1.56112,1.280572 z m -8.27288,-0.01018 c -0.35614,-0.537703 -1.54877,-1.259841 -1.54877,-1.259841 0,0 -0.17312,-2.052551 -0.48994,-2.898005 1.61769,0.229638 3.48863,0.713093 5.3997,1.660775 -1.14081,0.659673 -2.2749,1.479874 -3.36099,2.497071 z m 4.194,-2.95029 c -2.13388,-1.132548 -4.24449,-1.700902 -6.06013,-1.966686 1.95365,-1.982269 4.1166,-3.319948 6.20781,-4.220019 2.09232,0.900359 4.25664,2.238838 6.21107,4.22236 -1.89891,0.257837 -4.12241,0.820621 -6.35875,1.964345 z m -6.71385,-2.585757 c -0.24316,-0.746745 -1.73532,-1.265005 -1.73532,-1.265005 0,0 0.56727,-3.086606 0.3663,-4.137222 1.62334,0.04807 4.23062,0.313377 7.07609,1.344482 -1.93919,0.928068 -3.90863,2.23123 -5.70707,4.057745 z m 13.41674,-0.305153 c -1.71439,-1.667697 -3.57079,-2.877163 -5.40025,-3.752637 2.61813,-0.948892 5.03465,-1.24935 6.66829,-1.328732 -0.19846,1.035914 0.37679,3.565667 0.37679,3.565667 0,0 -1.43599,0.854768 -1.64483,1.515702 z m -6.55472,-4.264211 c -2.80512,-1.146305 -5.45935,-1.553602 -7.33188,-1.683475 2.53255,-2.157298 5.04079,-3.560287 7.33176,-4.466022 2.29101,0.905645 4.79879,2.308536 7.33143,4.465735 -1.87251,0.129946 -4.52624,0.537357 -7.33131,1.683762 z m -8.44707,-2.037952 c -0.12796,-0.765587 -1.39273,-2.311462 -1.39273,-2.311462 0,0 0.81883,-2.239986 0.75494,-3.345545 1.04867,-0.07262 2.8809,-0.08146 5.19866,0.389018 0.78425,0.159195 1.62214,0.372998 2.50115,0.658311 -2.24726,1.005754 -4.65483,2.476431 -7.06202,4.609678 z m 16.53955,-0.309353 c -2.28886,-1.967085 -4.57115,-3.344061 -6.70819,-4.300379 0.879,-0.285347 1.71688,-0.499184 2.50113,-0.658409 2.04431,-0.41506 3.71071,-0.457542 4.79504,-0.411954 -0.06,1.047252 0.77831,3.169305 0.77831,3.169305 0,0 -1.24873,1.471485 -1.36629,2.201437 z m -8.09262,-4.870862 c -1.31133,-0.494984 -2.55205,-0.8357 -3.68661,-1.066008 -1.79398,-0.364165 -3.33278,-0.452635 -4.46847,-0.442262 2.73395,-2.196684 5.56561,-3.562819 8.15496,-4.40454 2.58939,0.841619 5.42115,2.207644 8.15515,4.404221 -1.13569,-0.01028 -2.6745,0.07825 -4.46845,0.442437 -1.13457,0.230352 -2.37527,0.571116 -3.68658,1.066152 z m -9.15142,-2.112871 c -0.008,-1.25555 -0.97931,-2.354871 -0.97931,-2.354871 0,0 1.04373,-1.51169 1.19057,-2.724403 1.36822,-0.05733 3.98981,-0.01889 7.14428,0.76518 -2.3905,0.927577 -4.91795,2.298826 -7.35554,4.314094 z m 17.90433,-0.32332 -5.2e-4,0 c -2.31338,-1.839675 -4.69578,-3.113268 -6.95624,-3.990324 2.86564,-0.712306 5.29133,-0.809873 6.73704,-0.778892 0.0803,0.659979 1.29817,2.782745 1.29817,2.782745 0,0 -0.94205,0.408988 -1.07845,1.986471 z m -8.75356,-4.616089 c -3.78644,-1.173596 -7.04824,-1.290722 -8.7814,-1.241098 0.0466,-0.277321 0.0973,-0.546942 0.15191,-0.809253 1.64636,-1.044862 4.51006,-2.596628 8.42112,-3.726555 2.98604,0.824592 5.98289,2.118393 8.47914,3.951014 0.037,0.18849 0.0719,0.380699 0.10492,0.576708 -1.80851,-0.01886 -4.86669,0.161316 -8.37569,1.249184 z m 7.878,-3.443874 c -1.86089,-1.213174 -3.91252,-2.158993 -6.00175,-2.867923 1.33534,-0.300656 2.77041,-0.544604 4.30049,-0.702884 0.40853,0.548042 1.65471,1.494448 1.65471,1.494448 0,0 -0.13118,1.472913 0.0465,2.076359 z m -16.12563,-0.115435 c 0.20224,-0.667633 -0.44859,-1.873261 -0.44859,-1.873261 0,0 1.695,-0.996463 2.00967,-1.437679 1.3925,0.08367 2.89123,0.279893 4.42455,0.597803 -2.51626,0.86857 -4.53143,1.872589 -5.98563,2.713137 z" /><path
       id="path1-7-3"
       style="fill:#000000;stroke:none;stroke-width:0.388431"
       d="m 100.89336,172.59447 c 0,0.62213 -1.677448,1.91697 -2.821018,3.67368 -1.14033,-1.20045 -2.02617,-2.46203 -2.71249,-3.72432 0.69023,-1.21918 1.5803,-2.44236 2.72386,-3.61478 1.05891,1.59859 2.809648,3.04329 2.809648,3.66542 z m -3.466448,-4.13309 c -1.01283,1.05513 -1.83159,2.15064 -2.49184,3.24942 -0.8811,-1.84671 -1.3587,-3.66621 -1.60455,-5.2679 0.81469,0.30762 2.81601,0.45756 2.81601,0.45756 0,0 0.73716,1.20041 1.28038,1.56092 z m -0.0103,8.27289 c -0.53771,0.35613 -1.25972,1.54894 -1.25972,1.54894 0,0 -2.05271,0.17289 -2.89817,0.4897 0.22967,-1.61769 0.71317,-3.48863 1.66089,-5.39968 0.65965,1.14082 1.47982,2.27493 2.497,3.36104 z m -2.95021,-4.19406 c -1.13259,2.13386 -1.70098,4.24447 -1.9668,6.0601 -1.98223,-1.95369 -3.31987,-4.11667 -4.2199,-6.2079 0.9004,-2.09231 2.23892,-4.25661 4.22248,-6.211 0.2578,1.89892 0.82054,4.12243 1.96422,6.3588 z m -2.58589,6.71381 c -0.74675,0.24314 -1.26516,1.7357 -1.26516,1.7357 0,0 -3.08647,-0.56774 -4.13709,-0.36679 0.0481,-1.62334 0.31346,-4.23061 1.34462,-7.07606 0.92803,1.93921 2.23115,3.90867 4.05763,5.70715 z m -0.30489,-13.41676 c -1.66773,1.71436 -2.87723,3.57074 -3.75274,5.40019 -0.94884,-2.61816 -1.24925,-5.03469 -1.3286,-6.66833 1.03591,0.19848 3.5657,-0.37661 3.5657,-0.37661 0,0 0.85471,1.4359 1.51564,1.64475 z m -4.26434,6.55464 c -1.14636,2.8051 -1.5537,5.45933 -1.68361,7.33186 -2.15725,-2.5326 -3.56019,-5.04087 -4.46588,-7.33186 0.90569,-2.291 2.30863,-4.79875 4.46588,-7.33134 0.12991,1.87251 0.53726,4.52624 1.68361,7.33134 z m -2.03811,8.44704 c -0.76559,0.12794 -2.31135,1.393 -2.31135,1.393 0,0 -2.24011,-0.81919 -3.34567,-0.75532 -0.0726,-1.04867 -0.0814,-2.88091 0.38912,-5.19866 0.15921,-0.78425 0.37303,-1.62213 0.65836,-2.50113 1.00571,2.24728 2.47634,4.65488 4.60954,7.06211 z m -0.30903,-16.53957 c -1.96713,2.28882 -3.34415,4.57109 -4.30051,6.70812 -0.28533,-0.87902 -0.49915,-1.7169 -0.65836,-2.50115 -0.41502,-2.04432 -0.45747,-3.71072 -0.41186,-4.79505 1.04725,0.06 3.16933,-0.77816 3.16933,-0.77816 0,0 1.47145,1.24867 2.2014,1.36624 z m -4.87102,8.09253 c -0.49501,1.31132 -0.83575,2.55203 -1.06608,3.68659 -0.3642,1.79397 -0.4527,3.33279 -0.44235,4.46848 -2.19663,-2.73399 -3.56272,-5.5657 -4.40439,-8.15507 0.84167,-2.58938 2.20776,-5.4211 4.40439,-8.15506 -0.0103,1.13569 0.0782,2.67449 0.44235,4.46845 0.23033,1.13457 0.57107,2.37529 1.06608,3.68661 z m -2.11305,9.15139 c -1.25555,0.008 -2.35467,0.97952 -2.35467,0.97952 0,0 -1.5119,-1.04402 -2.72461,-1.19088 -0.0573,-1.36822 -0.0188,-3.98982 0.76533,-7.14428 0.92753,2.39052 2.29873,4.91801 4.31395,7.35564 z m -0.32298,-17.90383 c -1.83972,2.31334 -3.11335,4.69571 -3.99045,6.95615 -0.71225,-2.86565 -0.80977,-5.29133 -0.77876,-6.73704 0.65998,-0.0803 2.78286,-1.29815 2.78286,-1.29815 0,0 0.40887,0.94241 1.98635,1.07884 z m -4.61625,8.75295 c -1.17367,3.78642 -1.29086,7.04822 -1.24127,8.78139 -0.27732,-0.0466 -0.54694,-0.0973 -0.80925,-0.15193 -1.04483,-1.64638 -2.59655,-4.51012 -3.7264,-8.4212 0.82465,-2.98604 2.11852,-5.98285 3.95119,-8.47907 0.18849,-0.037 0.3807,-0.0719 0.57671,-0.1049 -0.0189,1.80851 0.16122,4.86668 1.24902,8.37571 z m -3.44372,-7.87807 c -1.21321,1.86087 -2.15907,3.91247 -2.86804,6.00169 -0.30064,-1.33535 -0.54456,-2.77042 -0.70281,-4.30051 0.54806,-0.40852 1.49479,-1.65458 1.49479,-1.65458 0,0 1.47261,0.13112 2.07606,-0.0466 z m -0.11576,16.12564 c -0.66763,-0.20225 -1.8734,0.44866 -1.8734,0.44866 0,0 -0.99629,-1.69513 -1.43751,-2.0098 0.0837,-1.3925 0.27995,-2.89124 0.5979,-4.42455 0.86852,2.51627 1.87249,4.53147 2.71301,5.98569 z m -3.36828,-8.08582 c -0.51365,1.92961 -0.83461,3.84875 -0.98598,5.6379 -1.4719,-1.49622 -2.09496,-3.41495 -2.09496,-5.59759 0,-2.12921 0.59298,-4.00736 1.98851,-5.48701 0.24683,1.97818 0.63172,3.79791 1.09243,5.4467 z"
       sodipodi:nodetypes="zccczcccccccccccccccccccccccccccccccccsccccsccccscccscccccccccccccccccccccsccccccccsccc" /><path
       id="path1-7-3-7"
       style="fill:#ffffff;stroke:none;stroke-width:0.388431"
       d="m 107.51151,114.30626 c 0.62213,0 1.91698,1.67745 3.67369,2.82102 -1.20045,1.14033 -2.46203,2.02617 -3.72433,2.71249 -1.21919,-0.69023 -2.44236,-1.5803 -3.61479,-2.72386 1.5986,-1.05891 3.0433,-2.80965 3.66543,-2.80965 z m -4.1331,3.46645 c 1.05513,1.01283 2.15065,1.83159 3.24942,2.49184 -1.8467,0.8811 -3.66622,1.3587 -5.26792,1.60455 0.30763,-0.81469 0.45757,-2.81601 0.45757,-2.81601 0,0 1.20041,-0.73716 1.56093,-1.28038 z m 8.27291,0.0103 c 0.35613,0.53771 1.54894,1.25972 1.54894,1.25972 0,0 0.17289,2.05271 0.4897,2.89817 -1.61769,-0.22967 -3.48863,-0.71317 -5.39969,-1.66089 1.14083,-0.65965 2.27494,-1.47982 3.36105,-2.497 z m -4.19407,2.95021 c 2.13387,1.13259 4.24448,1.70098 6.06011,1.9668 -1.95369,1.98223 -4.11667,3.31987 -6.20791,4.2199 -2.09231,-0.9004 -4.25663,-2.23892 -6.21103,-4.22248 1.89893,-0.2578 4.12246,-0.82054 6.35883,-1.96422 z m 6.71382,2.58589 c 0.24314,0.74675 1.7357,1.26516 1.7357,1.26516 0,0 -0.56774,3.08647 -0.36679,4.13709 -1.62334,-0.0481 -4.23061,-0.31346 -7.07607,-1.34462 1.93922,-0.92803 3.90868,-2.23115 5.70716,-4.05763 z m -13.4168,0.30489 c 1.71437,1.66773 3.57076,2.87723 5.40021,3.75274 -2.61816,0.94884 -5.03471,1.24925 -6.668351,1.3286 0.19848,-1.03591 -0.37661,-3.5657 -0.37661,-3.5657 0,0 1.435901,-0.85471 1.644751,-1.51564 z m 6.55467,4.26434 c 2.80511,1.14636 5.45934,1.5537 7.33187,1.68361 -2.5326,2.15725 -5.04087,3.56019 -7.33187,4.46588 -2.291,-0.90569 -4.79877,-2.30863 -7.331371,-4.46588 1.872521,-0.12991 4.526261,-0.53726 7.331371,-1.68361 z m 8.44705,2.03811 c 0.12794,0.76559 1.393,2.31135 1.393,2.31135 0,0 -0.81919,2.24011 -0.75532,3.34567 -1.04867,0.0726 -2.88091,0.0814 -5.19866,-0.38912 -0.78425,-0.15921 -1.62213,-0.37303 -2.50113,-0.65836 2.24728,-1.00571 4.65488,-2.47634 7.06211,-4.60954 z m -16.539611,0.30903 c 2.288821,1.96713 4.571111,3.34415 6.708141,4.30051 -0.87901,0.28533 -1.7169,0.49915 -2.50115,0.65836 -2.04434,0.41502 -3.710741,0.45747 -4.795071,0.41186 0.06,-1.04725 -0.77816,-3.16933 -0.77816,-3.16933 0,0 1.24867,-1.47145 1.36624,-2.2014 z m 8.092561,4.87102 c 1.31133,0.49501 2.55204,0.83575 3.6866,1.06608 1.79397,0.3642 3.33279,0.4527 4.46848,0.44235 -2.73399,2.19663 -5.5657,3.56272 -8.15508,4.40439 -2.58939,-0.84167 -5.42112,-2.20776 -8.155091,-4.40439 1.135691,0.0103 2.674501,-0.0782 4.468471,-0.44235 1.13457,-0.23033 2.37529,-0.57107 3.68662,-1.06608 z m 9.1514,2.11305 c 0.008,1.25555 0.97952,2.35467 0.97952,2.35467 0,0 -1.04402,1.5119 -1.19088,2.72461 -1.36822,0.0573 -3.98982,0.0188 -7.14428,-0.76533 2.39052,-0.92753 4.91801,-2.29873 7.35564,-4.31395 z m -17.903871,0.32298 c 2.313341,1.83972 4.695731,3.11335 6.956181,3.99045 -2.86567,0.71225 -5.29136,0.80977 -6.737071,0.77876 -0.0803,-0.65998 -1.29815,-2.78286 -1.29815,-2.78286 0,0 0.94241,-0.40887 1.07884,-1.98635 z m 8.752981,4.61625 c 3.78643,1.17367 7.04823,1.29086 8.7814,1.24127 -0.0466,0.27732 -0.0973,0.54694 -0.15193,0.80925 -1.64638,1.04483 -4.51012,2.59655 -8.42121,3.7264 -2.98605,-0.82465 -5.98288,-2.11852 -8.479101,-3.95119 -0.037,-0.18849 -0.0719,-0.3807 -0.1049,-0.57671 1.808511,0.0189 4.866701,-0.16122 8.375741,-1.24902 z m -7.878101,3.44372 c 1.860871,1.21321 3.912491,2.15907 6.001721,2.86804 -1.33536,0.30064 -2.77044,0.54456 -4.30054,0.70281 -0.40852,-0.54806 -1.654581,-1.49479 -1.654581,-1.49479 0,0 0.13112,-1.47261 -0.0466,-2.07606 z m 16.125681,0.11576 c -0.20225,0.66763 0.44866,1.8734 0.44866,1.8734 0,0 -1.69513,0.99629 -2.0098,1.43751 -1.3925,-0.0837 -2.89124,-0.27995 -4.42455,-0.5979 2.51627,-0.86852 4.53147,-1.87249 5.98569,-2.71301 z m -8.08583,3.36828 c 1.92962,0.51365 3.84876,0.83461 5.63791,0.98598 -1.49622,1.4719 -3.41495,2.09496 -5.5976,2.09496 -2.12921,0 -4.00737,-0.59298 -5.48703,-1.98851 1.97819,-0.24683 3.79792,-0.63172 5.44672,-1.09243 z"
       sodipodi:nodetypes="zccczcccccccccccccccccccccccccccccccccsccccsccccscccscccccccccccccccccccccsccccccccsccc" /><path
       id="path1-7-3-3-4"
       style="fill:#000000;stroke:none;stroke-width:0.388431"
       d="m 61.244777,90.708088 c -0.0162,0.62192 -1.72671,1.87274 -2.91554,3.59914 -1.10876,-1.22967 -1.96151,-2.51384 -2.61479,-3.79354 0.72167,-1.20084 1.64322,-2.40047 2.81686,-3.54277 1.01701,1.62556 2.72963,3.11526 2.71347,3.73717 z m -3.35789,-4.22176 c -1.03984,1.02853 -1.88686,2.10233 -2.57544,3.18357 -0.83314,-1.86883 -1.26298,-3.70026 -1.46712,-5.3078 0.80642,0.32867 2.80317,0.53057 2.80317,0.53057 0,0 0.70572,1.21916 1.23939,1.59366 z m -0.22526,8.26982 c -0.5468,0.34201 -1.29955,1.51569 -1.29955,1.51569 0,0 -2.0565,0.11949 -2.90991,0.41423 0.27162,-1.61118 0.80358,-3.46894 1.80064,-5.35471 0.62978,1.15758 1.4202,2.31262 2.40882,3.42479 z m -2.84025,-4.2693 c -1.18765,2.10371 -1.81068,4.19884 -2.12359,6.00695 -1.93076,-2.00457 -3.21177,-4.20155 -4.05716,-6.31546 0.95445,-2.06819 2.34876,-4.19698 4.38244,-6.09917 0.20836,1.90498 0.71313,4.14236 1.79831,6.40768 z m -2.75946,6.64435 c -0.75281,0.22365 -1.30983,1.70224 -1.30983,1.70224 0,0 -3.07067,-0.64774 -4.12617,-0.47416 0.0903,-1.62155 0.42329,-4.22104 1.52803,-7.03873 0.87697,1.96283 2.12884,3.96532 3.90797,5.81065 z m 0.0438,-13.42014 c -1.71173,1.67043 -2.96905,3.49477 -3.89179,5.30085 -0.8805,-2.64193 -1.11801,-5.06545 -1.15489,-6.7006 1.0304,0.22533 3.57429,-0.28382 3.57429,-0.28382 0,0 0.8171,1.45762 1.47239,1.68357 z m -4.43322,6.44161 c -1.21887,2.77437 -1.69503,5.41711 -1.87356,7.28564 -2.09071,-2.5878 -3.428,-5.13168 -4.27386,-7.44543 0.96492,-2.26669 2.43255,-4.73713 4.65488,-7.21282 0.0812,1.87526 0.41947,4.53868 1.49254,7.37261 z m -2.25691,8.39123 c -0.76866,0.108 -2.34676,1.33247 -2.34676,1.33247 0,0 -2.21807,-0.87713 -3.32493,-0.84202 -0.0453,-1.05019 -0.006,-2.88204 0.52408,-5.18677 0.17953,-0.77986 0.41505,-1.6119 0.72313,-2.48318 0.94692,2.27267 2.35456,4.71765 4.42448,7.1795 z m 0.12083,-16.54201 c -2.02593,2.23693 -3.46178,4.48265 -4.47336,6.5941 -0.26239,-0.88612 -0.45436,-1.72928 -0.59314,-2.5174 -0.36176,-2.05442 -0.3609,-3.72136 -0.28713,-4.80413 1.04534,0.0872 3.18849,-0.69555 3.18849,-0.69555 0,0 1.4385,1.28649 2.16514,1.42298 z m -5.07964,7.96322 c -0.52892,1.29801 -0.90178,2.52945 -1.16151,3.65765 -0.4107,1.78389 -0.53915,3.3199 -0.55831,4.45547 -2.12485,-2.79014 -3.41691,-5.65639 -4.19101,-8.26676 0.90867,-2.56662 2.34788,-5.36189 4.61481,-8.03786 -0.0398,1.13505 0.009,2.67563 0.32609,4.47844 0.20077,1.14017 0.50915,2.38932 0.96993,3.71306 z m -2.35014,9.0934 c -1.25533,-0.0246 -2.37932,0.918 -2.37932,0.918 0,0 -1.48426,-1.08296 -2.69275,-1.26128 -0.0217,-1.36924 0.0849,-3.98896 0.95071,-7.12197 0.86511,2.4138 2.17015,4.97608 4.12136,7.46525 z m 0.14235,-17.90618 c -1.8992,2.26476 -3.23431,4.61323 -4.16985,6.85011 -0.63755,-2.88319 -0.672,-5.31057 -0.60343,-6.755 0.66183,-0.0631 2.81565,-1.22536 2.81565,-1.22536 0,0 0.38422,0.95274 1.95766,1.13009 z m -4.84213,8.63005 c -1.27165,3.75463 -1.47356,7.01228 -1.46903,8.74615 -0.27602,-0.0538 -0.54422,-0.11148 -0.80502,-0.17289 -1.0017,-1.67298 -2.47848,-4.57607 -3.50633,-8.51519 0.90197,-2.96359 2.27327,-5.92577 4.17019,-8.37352 0.18937,-0.0321 0.38244,-0.062 0.57924,-0.0899 -0.0659,1.8074 0.0347,4.86922 1.03095,8.40533 z m -3.23785,-7.96489 c -1.26114,1.82871 -2.26,3.85504 -3.02302,5.92515 -0.26583,-1.34273 -0.47237,-2.78365 -0.59082,-4.31733 0.55848,-0.39415 1.53727,-1.61519 1.53727,-1.61519 0,0 1.4687,0.16934 2.07657,0.007 z m -0.53473,16.11717 c -0.66215,-0.21952 -1.88443,0.39983 -1.88443,0.39983 0,0 -0.9519,-1.72046 -1.38478,-2.04648 0.11985,-1.38985 0.35497,-2.88299 0.71265,-4.40752 0.80284,2.538 1.75411,4.57859 2.55656,6.05417 z m -3.15702,-8.17061 c -0.56362,1.91561 -0.93434,3.82576 -1.13215,5.61037 -1.43254,-1.53394 -2.00552,-3.46824 -1.94881,-5.65012 0.0553,-2.12849 0.69691,-3.9906 2.13042,-5.43348 0.19534,1.98392 0.53282,3.81303 0.95054,5.47323 z"
       sodipodi:nodetypes="zccczcccccccccccccccccccccccccccccccccsccccsccccscccscccccccccccccccccccccsccccccccsccc" /><path
       id="path1"
       style="fill:#000000;stroke:#000000;stroke-width:0.388431"
       d="m 46.998302,112.78117 c -1.33548,0 -2.57212,0.85191 -3.67368,2.29185 1.20045,1.14033 2.46203,2.02617 3.72432,2.71249 1.21918,-0.69023 2.44235,-1.5803 3.61477,-2.72386 -1.09943,-1.43328 -2.33333,-2.28048 -3.66541,-2.28048 z m 4.13308,2.93728 c -1.05513,1.01283 -2.15064,1.83159 -3.24941,2.49184 1.8467,0.8811 3.6662,1.3587 5.26789,1.60455 -0.5952,-1.57633 -1.27234,-2.97212 -2.01848,-4.09639 z m -8.27288,0.0103 c -0.75472,1.13952 -1.43875,2.55701 -2.03863,4.15789 1.61768,-0.22967 3.48862,-0.71317 5.39967,-1.66089 -1.14082,-0.65965 -2.27493,-1.47982 -3.36104,-2.497 z m 4.19406,2.95021 c -2.13386,1.13259 -4.24447,1.70098 -6.06009,1.9668 1.95368,1.98223 4.11666,3.31987 6.20789,4.2199 2.0923,-0.9004 4.2566,-2.23892 6.21099,-4.22248 -1.89892,-0.2578 -4.12243,-0.82054 -6.35879,-1.96422 z m -6.7138,2.58589 c -0.54623,1.67759 -1.00675,3.50879 -1.36891,5.40225 1.62334,-0.0481 4.2306,-0.31346 7.07605,-1.34462 -1.93921,-0.92803 -3.90867,-2.23115 -5.70714,-4.05763 z m 13.41675,0.30489 c -1.71437,1.66773 -3.57075,2.87723 -5.40019,3.75274 2.61815,0.94884 5.03468,1.24925 6.66833,1.3286 -0.33984,-1.77374 -0.76607,-3.49248 -1.26814,-5.08134 z m -6.55464,4.26434 c -2.8051,1.14636 -5.45933,1.5537 -7.33185,1.68361 2.53259,2.15725 5.04086,3.56019 7.33185,4.46588 2.29099,-0.90569 4.79874,-2.30863 7.33134,-4.46588 -1.87252,-0.12991 -4.52625,-0.53726 -7.33134,-1.68361 z m -8.44703,2.03811 c -0.31306,1.87336 -0.52967,3.7874 -0.63768,5.65702 1.04867,0.0726 2.88091,0.0814 5.19865,-0.38912 0.78425,-0.15921 1.62213,-0.37303 2.50113,-0.65836 -2.24728,-1.00571 -4.65487,-2.47634 -7.0621,-4.60954 z m 16.53956,0.30903 c -2.28883,1.96713 -4.5711,3.34415 -6.70812,4.30051 0.87901,0.28533 1.71689,0.49915 2.50114,0.65836 2.04432,0.41502 3.71073,0.45747 4.79506,0.41186 -0.10169,-1.77396 -0.30109,-3.58886 -0.58808,-5.37073 z m -8.09253,4.87102 c -1.31132,0.49501 -2.55203,0.83575 -3.68659,1.06608 -1.79397,0.3642 -3.33278,0.4527 -4.46847,0.44235 2.73398,2.19663 5.56569,3.56272 8.15506,4.40439 2.58937,-0.84167 5.42109,-2.20776 8.15506,-4.40439 -1.13569,0.0103 -2.6745,-0.0782 -4.46846,-0.44235 -1.13457,-0.23033 -2.37528,-0.57107 -3.6866,-1.06608 z m -9.15138,2.11305 c -0.008,0.35082 -0.0124,0.69926 -0.0124,1.04438 0,1.48035 0.0769,2.82219 0.22376,4.0349 1.36822,0.0573 3.98981,0.0188 7.14427,-0.76533 -2.39052,-0.92753 -4.918,-2.29873 -7.35563,-4.31395 z m 17.90382,0.32298 c -2.31334,1.83972 -4.69572,3.11335 -6.95616,3.99045 2.86565,0.71225 5.29134,0.80977 6.73705,0.77876 0.1479,-1.21598 0.22531,-2.56225 0.22531,-4.04781 0,-0.23901 -0.002,-0.47957 -0.006,-0.7214 z m -8.75295,4.61625 c -3.78642,1.17367 -7.04821,1.29086 -8.78138,1.24127 0.0466,0.27732 0.0973,0.54694 0.15193,0.80925 1.64638,1.04483 4.51011,2.59655 8.42119,3.72639 2.98603,-0.82465 5.98284,-2.11851 8.47907,-3.95118 0.037,-0.18849 0.0719,-0.3807 0.1049,-0.57671 -1.80851,0.0189 -4.86669,-0.16122 -8.37571,-1.24902 z m 7.87807,3.44372 c -1.86088,1.21321 -3.91248,2.15906 -6.0017,2.86804 1.33535,0.30063 2.77042,0.54455 4.30051,0.7028 0.40853,-0.54805 0.77479,-1.17933 1.09423,-1.90036 0.22637,-0.51098 0.42924,-1.06703 0.60696,-1.67048 z m -16.12563,0.11576 c 0.40253,1.32878 0.92872,2.42415 1.56114,3.3109 1.39249,-0.0837 2.89123,-0.27995 4.42454,-0.59789 -2.51627,-0.86853 -4.53146,-1.87249 -5.98568,-2.71301 z m 8.08581,3.36827 c -1.92961,0.51365 -3.84875,0.83461 -5.6379,0.98598 1.49622,1.4719 3.41495,2.09496 5.59759,2.09496 2.1292,0 4.00735,-0.59298 5.487,-1.98851 -1.97818,-0.24683 -3.7979,-0.63172 -5.44669,-1.09243 z"
       sodipodi:nodetypes="scccsccccccccccccccccccccccccccccsccccscccscccsccsccccccscccccccccccscccccccscc" /><circle
       style="fill:#ffffff;stroke:none;stroke-width:0.799999;stroke-dasharray:none"
       id="path6"
       cx="66.683304"
       cy="131.51237"
       r="5.2411766" /><text
       xml:space="preserve"
       style="font-size:13.5035px;text-align:start;writing-mode:lr-tb;direction:ltr;text-anchor:start;fill:#000000;stroke:none;stroke-width:3.40246;stroke-dasharray:none"
       x="135.80341"
       y="188.20941"
       id="text7"><tspan
         sodipodi:role="line"
         id="tspan7"
         style="fill:#000000;stroke-width:3.40246"
         x="135.80341"
         y="188.20941">فانوس</tspan><tspan
         sodipodi:role="line"
         style="fill:#000000;stroke-width:3.40246"
         x="135.80341"
         y="205.42786"
         id="tspan8"> و کاج</tspan></text><rect
       style="fill:#ffffff;stroke:none;stroke-width:0.505964;stroke-dasharray:none"
       id="rect8"
       width="83.298363"
       height="2.8236735"
       x="-26.944359"
       y="215.92313"
       transform="rotate(-31.699335)" /><rect
       style="fill:#000000;stroke:none;stroke-width:0.799999;stroke-dasharray:none"
       id="rect11"
       width="31.292831"
       height="2.8564677"
       x="-41.663937"
       y="197.29727"
       transform="rotate(-25.514921)" /><rect
       style="fill:#000000;stroke-width:0.868282"
       id="rect1"
       width="32.119286"
       height="2.8236735"
       x="47.081051"
       y="157.619" /><rect
       style="fill:#000000;stroke-width:0.614974"
       id="rect2"
       width="2.7404687"
       height="27.026699"
       x="142.72778"
       y="58.694733"
       transform="matrix(0.60634439,0.79520216,-0.65949113,0.75171235,0,0)" /></g></svg>
